<svg viewBox="0 0 327.62 790" xmlns="http://www.w3.org/2000/svg"><path d="m183.69 236.6c2.68.35 2.53 1.16 0 2.01l1.15 1.13 19.17.79.73 1.08c2.67.32 2.55 1.24 0 2.01l-1.24 1.58c5.14-.23 10.29-.5 15.42-.82l.86 1.25c.25.88-.41 1.89-2.01 3.01-3.32 1.44-7.33 1.78-12.03 1l-.28 1.03c-1.63-.2 7.32.02 4.29 2.98l-.95 1.43c-8.15.07-15.85.92-23.12 2.58-.94.34-2.04.67-3.01 1-6.76.77-13.68 1.28-20.34-.19l-.72-1.82c-9.77.2-19.53 0-29.27-.57l-2.82-1.43c-2.48-.24-3.81-.91-4.01-2.01-.62-.63-1.97-1.29-4.01-2.01-.56-1.49 1.03-1.7 2.42-1.43l.59-1.57-15.57-.75-.47-1.25c-2.01-.67-2.35-1.34-1-2.01 5.48-.66 11.09-.65 16.85.03l.2-1.03c-.87-.28-.86-.62 0-1l2.23-1.3c6.75-.22 13.37-.78 19.84-1.7-2.73-.13-2.59-1.14 0-2.01 12.4-.07 24.7-.43 37.11 0z" fill="#fdfdfd"/><path d="m112.49 772.12 3.83-1.04c30.24 1.61 60.49 2.17 90.77 1.66l3.69 1.39c3.19-.43 5.86-.1 8.02 1l-1.32 2.33c-11.29 2.59-22.88 3.48-34.78 2.69.09.53.12 1.03-.03 1.47-.19.52-9.59 1.46-11 1.53-18 1.93-43.56.03-62.18-1 .18-1.69 2.19-2.04 6.02-1 3.09-1.61 1.37-3.18-5.15-4.69l-.86-2.33c-4.37-1.73-.08-2.5 3.01-2.01h-.01z" fill="#fbfbfb"/><path d="m39.28 763.1c1.26 1.02 4.44.75 5.49-.38l2.54 1.38c16.21.76 32.97 2.2 49.21 4.32 4.12.54 8.91 1.16 12.88 2.09 1.09.25 2.11.88 3.1 1.61-2.38-.04-3.48-.67-3.01 2.01-2.88 1.32-6.4 1.53-10.55.63-4.19 2.18 15.08 4.78 15.33 3.93l1.23 2.46c-1.9.02-4.92-.68-6.02 1-23.51-1.3-47.26-3.4-70.2-9.03-2.15-.74-2.82-2.08-2.01-4.01-6.89-2.05-13.7-4.72-20.42-8.02l-.64 1c1.33 1.41.77 1.93-1 1-1.7-1.91-4.54-5.3-3.5-8.03 9.14 1.89 18.19 7.5 27.57 8.03z" fill="#f4f4f4"/><path d="m237.84 288.75c2.27-.06 2.21.07 1 2.01.79.84 1.12 1.85 1 3.01.63 2.47.6 5.21-.09 8.23l.22 14.05-2.13 1.79c-1.24.78-1.87.4-1.92-.97l-.05-18.64c.07-.89-.28-1.71-1.05-2.46.46.03.85.1.94.31.81 1.71.77 33.53.75 38 .52 5.96-.05 11.41-1.7 16.35 1.22-1.49 1.31.85 1.21.78-.73-.48-.57-7.15 1.8-6.3 2.16 1.01 2.8 3.42 1.93 7.24 2.56-.36 4.26.23 5.09 1.79.97 1.2-4.61 1.81-4.35 1.77 8.27-1.07 16.63-1.5 25.05-1.31-1.45.15-2.66-.36-3.65-1.45l.73-2.07 11.14-.79 2.05-10.36 2.12-.82c.28-.87.62-.86 1 0 .89-1.16 1.56-1.16 2.01 0 .53-3.9.8-7.84.81-11.83l1.19-.2 2.07.8c.36 6.83.56 13.74.59 20.72l1.35.54c.77-1.54 1.43-.87 2.01 2.01 0 .33.02.67 0 1-.88 1.59-.88 2.94 0 4.01-.04.33.03.67 0 1-16.03.06-32.13.37-48.14 1l-4.71-.24c-1.56-1.73-3-1.65-4.31.24-1.5-.69-.97-2.69-1-4.01-.5-20.18.35-40.45.02-60.65.84-4.41 4.57-3.49 7-4.53h.02z" fill="#fafafa"/><path d="m308.04 760.09c1.98-.39 2.65-.06 2.01 1l.19 1.45c-6.26 2.85-12.68 5.03-19.24 6.57.52 1.12 1.19 2.13 2.01 3.01-23.83 5.89-45.75 8.68-70.2 10.03-1.27.34-1.59.26-1-1l.82-2.15c3.97-.86 6.81-4.06 7.89-7.68 3.03-3.2 15.37-3.56 19.36-2.21 3-2.39 11.21-3.63 14.04-1 1.4-.25 3.64-.58 3.01 1l-1.8 2.29c-14.11 3.42-18.12 5.45-.33 2.6 8.23-1.32 15.41-3.43 22.68-7.4-.55-2.45.8-4.55 3.5-3.49-.15-1.94 1.12-2.19 3.82-.76-.03-1.75.37-1.83 1.19-.24 1.11-2.57 10.07-4.67 12.03-2.01h.01z" fill="#f3f3f3"/><path d="m101.46 290.76c4.05-.49 4.22.11 1.48 3.02 1.39 1.92-.58 2.8-2.49 3l.91.5c.11 18.87.48 37.77 1.09 56.66 8.79 1.66 18.96 2.25 30.51 1.75l.58 1.25c-1.59 1.98-5.16.7-7.61.95-1.27.13-2.29 1.04-2.42 1.05-4.08.28-22.78.73-25.43-.14s-1.56-5.62-1.64-7.88c-1.32-2.09-1.87-4.35-1.58-6.8v-47.02l-1.42-.33c.06-2.71.83-4.58-1.98-5.69l-.03-1.33c4.82 1.88 4.38 2.6 10.03 1z" fill="#eee"/><path d="m46.3 762.09c.77.62 1.11 1.29 1 2.01-.95-.09-8.94-.95-7.01 2.01l52.14 10.04c.78 3-2.47 2.09-4.56 2.05-4.26-.07-7.97-1.66-12.01-2.04-10.41-.94-29.56.45-36.17-9.04-1.22-1.75-1.26-1.92-.41-4.01 1.65.09 3.36-.05 5.01-.01l-1-2c1.78.38 2.83.97 3.01 1h.01z" fill="#070707"/><path d="m129.53 254.65c10.67.76 21.39 1.71 32.09 2.01-.29.51-.62.97-1.05 1.31-1.52 1.21-21.54.4-25.02-.31-6.55-.37-13.24-.7-20.06-1-5.48-1.1-12.2-2.43-19.05-4.01 11.06-.01 22.08 1.22 33.09 2.01z" fill="#393939"/><path d="m315.06 753.07c-1.11 2.26-.63 2.43 0 4.01 0 3.96-3.61 3.66-7.02 3.01-3.77 1.05-8.61 1.16-12.03 2.01-2.65.82-6.08.09-3.01-2.01.92-.6 1.96-.77 3.01-1 2.89-2.48 8.94-3.59 13.04-4.01 1.66-.66 4.66-1.23 6.02-2.01z" fill="#070707"/><path d="m316.06 759.08c-1.82 2-3.12 5.41-5.01 7.02-.97.83-4.57 2.42-6.02 3.01-1.66.33-2.34 0-2.01-1l.09-2.2c4.46-1.09 6.78-2.7 6.93-4.82-.58-.29-1.12-1.04-2.01-1 1.96-.54 5.3-1.83 7.02-3.01.19.47 1.17 1.07 1 2.01z" fill="#b0b0b0"/><path d="m74.38 251.64c-2.39 2.49-5.48 4.09-8.02 6.02v-2.01c1.65-1.1 4.05-3.8 6.02-5.01.7.31 1.34.7 2.01 1z" fill="#252525"/><path d="m323.08 279.72c-2.28-.82-2.16 2.05-2.95 2.5s-2.26-.54-3.39-.3c-1.2.25-1.55 1.78-1.68 1.82-1.16 1.28-3.48 1.29-6.94.02-3.68-1.52-13.84 5.35-13.87 6.63-.25 12.51-.47 25.02-.3 37.54-.25 2.43-.9 4.74-1.96 6.95-1.49 1.82-1.63 4.92 0 7.02 2.56 1.14 2.56 1.88 0 3.01-4.62-.57.05 9.15-3.01 12.03-.9-.1-.85-.45 0-1-2.54-1.07-2.54-2.41 0-4.01-.89-.19-.85-.52 0-1l-1-4.07c.51-18.74.26-37.46-.75-56.14-15.27-6.04-31.89-7.18-47.5-1.48l-1.89-.47c.22 1.7-1.17 2.79-4.2 3.26-.95 17.62-1.26 35.56-.95 53.83-1.25 2.56-1.89 5.25-1.88 8.09-1.45.51-.69 2.46-1 3.01-1.97 1.58-2.79.44-3.08-1.82.91-20.35.93-40.69.08-61.03-17.65-12.46-45.24-7.58-64.73-.63-16.75-6.53-32.44-8.79-50.61-5.72-2.28 1.96-7.49 4.55-10.03 3.01.15 2.76-3.66 3.89-4.93 1.68-1.45.94-3.15.04-5.09-2.69l-2.96 1c-14.99-6.82-35.01-7.89-48 3.05-.09 5.61-.33 11.19-.73 16.76l-2.47.24c-.25-1.68.6-4.5-.25-5.84-.34-.53-1.77.28-1.77-.68 0-.39 5.81-2.16-.96-4.51-1.17.88-2.28 9.67-2.02 11.43.12.78 2.01.44 2.03 1.1.06 1.78-2.51 2.92-2.04 3.49.71.87 2.48-1.04 3.01 4.03-1.12 3.83-1.46 7.96-1.01 12.39l-.99.65c1.61 3.09 1.7 9.02 0 12.03 1.12 2.97.81 11.31-2.01 6.02-.79-.09-1.98-.37-2.01-.92-.62-13.47-.34-28.72 0-42.3-.76-4.6-.09-7.74 2.01-9.42-2.76-1.45-.66-5.11 1.95-5.75-2.42-5.84-9.71-9.45-15.9-8.82l-1.09-.98-1-2.01c-1.38-1.4-.76-2.03 1-1 3.42-1.33 6.43-1.33 9.03 0l.89-.68c5.24 4.3 10.17 5.95 14.75 4.91 17.42-8.2 37.55-7.12 54.27 2.42 21.64-7.56 43.24-8.97 65.16-.73 23.3-6.73 46.6-10.24 69.54.83 6.22-3.08 12.45-6.12 19.48-7.14l2.55 1.4c11.91-3.35 22.41-2.78 33.45 2.59l5.05 1.18c6.35-4.58 13.15-6.79 20.41-6.62 4.51-1.27-31.29-27.32-33.84-28.23-7-3.85-7.33-3.51-1 1 10.22 4.78 25.79 14.36 32.83 23.41 1.94 2.49 1.79 2.83-1.27 3.89-6.28 1.03-12.44 3.2-18.48 6.49-9.7-13.23-23.71-25.08-38.15-32.78-.09 2.12-1.39 1.86-3.01 1-.54 2.42-2.53 3.56-4.47 2.14l-10.57 2.88c-1.56 2.75-3.44 2.73-5.01 0 1.82-.71 4.68-.64 4-3-2.8-.87-7.67 2.23-9.02-.51-.38-.78 3.78-.18 1-1.49 2.67-1.58 6.03-2.47 10.09-2.64 11.73-1.85 11.44-3.5-.85-4.96-6.23-1.46-12.54-2.98-18.25-5.44-1.51 1.32-3.21 1.13-5.07-.56l-10.36-1.1-.6-1.34c3.39-1.51 6.93 2.48 6.02-3.01 1.72-1.27 3.64-1.86 5.7-1.2l31.1 7.26c6.7 2.57 12.37 2.95 17 1.14l-22.72-14.7c-1.61-1-2.09-1.74-.98-3.53 6.2-.59-5.52-3.76 1-7.02 22.13 17.72 75.5 38.41 87.25 64.18l-.02-.03z" fill="#050505"/><path d="m214.78 239.61c11.49 1.95 22.71 4.59 34.1 7.03-.27 1.64-1.96 1.82-3.21 2.29-7.4 2.79-14.78 2.9-21.85 3.72-3.93.45-8.07.6-12.03 1-.56 1.93-1.44 1.92-2.01 0-1.22-3.84-6.99-.05-6.01-4 .65-.07 1.36.09 2 0 4.56.25 9.13.32 13.68-.06.09 0-.65-.42-1.64-.94l-1.01-2 3.02-1.01.35-1.38c-4.47 1.05-9.6.84-15.39-.62v-2.01c1.36-1.53 4.68-1.57 6.02 0 .84-1.02 2.19-1.69 4.01-2.01h-.01z" fill="#f2f2f2"/><path d="m35.27 319.84c.42 4-.06 8.87 0 13.04h-2.01c0-2.14-.39-12.53 0-13.05.12-.16 1.44.1 2.01 0z" fill="#757575"/><path d="m237.84 288.75c17.06-7.31 34.15-7.08 50.98 1.16-.13 20.29.75 40.74.16 61.01l-2.01-2.01-1.43-1.95c-.01-17.67-.32-35.19-.9-52.56l1.33-1.65-2.48-.96c-.49 1.79-1.33 1.43-2.54-1.04l-1.55.86c-13.04-2.17-25.95-4.22-38.86-.03l-1.7-.83c.01-.11-1.4-.96-1-2.01z" fill="#fdfdfd"/><path d="m292 277.71-35.1-28.06c3.17.47 6.15 3.01 8.74 4.78 2.46 1.67 28.33 21.3 26.35 23.28z" fill="#d0d0d0"/><path d="m280.96 259.67c1.33 1.41.77 1.93-1 1-5.23-3.62-10.99-6.65-16.16-10.45-.51-.38-3.67-1.09-1.9-2.58 1.12-.94 16.89 10.41 19.04 12.03h.01z" fill="#d5d5d5"/><path d="m111.48 287.75 3.01 1-.44 2.2c-5.24 1.08-7.1 2.36-5.58 3.82-2.63 1.73-5.71.67-5.01 5.01-1.73 0-2.74-1.01-3.01-3.01.47-2.15 5.16-4.58 1-6.02 3.45-.97 6.02-2.16 10.03-3.01z" fill="#dbdbdb"/><path d="m276.95 249.64-1 1c-3.29-2.13-7.94-3.62-10.03-7.01 4.3.29 8 4.24 11.03 6.01z" fill="#d8d8d8"/><path d="m280.96 259.67c3.2 2.39 6.86 4.5 9.03 8.01-4.01-.56-7.09-4.97-10.03-7.01z" fill="#acacac"/><path d="m288.99 355.94h-7.02c1.12-3.11 4.99-1.82 7.02-4.01-.06 1.32.15 2.71 0 4.01z" fill="#fdfdfd"/><path d="m287.98 761.09c.07-3.06 5.09.19 3.01 2.01-.41.16-2.69 4.07-3.79 5.02-11.3 9.65-38.75 8.87-53.37 11.01 2.93-3.31 9.02-3 13.27-4.27 6.45-1.94 12.63-4.93 19.83-5.75.54-1.25-1.58-1.25-3.01-1-4.28.59-9.76.4-14.04 1l1-2c-2-.04-4.01.02-6.02-.01l43.12-6.02z" fill="#070707"/><path d="m315.06 753.07c-1.37 2.96-3.48 4.74-6.02 2.01-1.73.36-2.4.03-2.01-1l-.59-1.53-11.46-.34-.98-2.14c-1.14 4.37-1.25 6.58 2.01 9.03.4 2.03-1.84 2.48-3.01 1-.36 1.81-1.68 1.92-3.99.32-.1-12.75.02-25.63.38-38.66l-1.4.72c.5 0 .97.07 1.33.3.91.57-.02 19.38-.16 21.61-.02.24-.52.45-1.17.65 0 .78-.18 1.97-.68 2.01-5.02.38-41.9 1.01-43.26-.67-.31-.38-.51-.84-.68-1.33l-.55 1.29c12.93.77 25.92.94 38.97.49 8.05-4.05 8.54 12.56 7.64 13.64-.3.36-.83.52-1.43.62.4 1.99-1.54 2.66-5.85 2l-18.25 3.2c-6.52.88-12.86 1.16-19.02.82-.53.68-1.07 1.24-1.69 1.33-46.89 6.95-95.64 5.12-142.93.86-2.11-.17-4.6-1.26-2.86-2.95-.5-5.24-.11-16.81.14-22.46.01-.3.41-.58.92-.85-1.56-2.99-2.24-2.66-2.01 1 1.57 7.68 1.96 15.72 1.14 24.12-17.02-1.06-34.79-2.3-51.29-6.07-.61 1.25-1.61.92-3.01-1-.79-.17-2.59.33-2.94-.05-.29-.32-.91-6.63-1.07-7.97 1.87-1.43 4.12-.41 6.77 3.05 6.33 2.23 12.98 3.57 19.95 4.01.38.06-6.68-.32-6.66-3.05-1.06-.13-7.26-2.37-5.28-3.36 5.99-.27 7.45-1.42 1.27-2.66-1.41 2.31-13.93 2.76-15.1 1.58-1.86-1.87 1.5-4.92 4.07-4.59l1.91-1.2c13.44-.11 26.88-.45 40.3-1.02l1.92 1.21c2.07-3.37 2.63.27 3.01 3.01 1.44.42 1.92 1.68 1.4 3.8l1.6-.29c-.5-.08-.97-.2-1.33-.47-.88-.66-.04-19.45.14-21.93.02-.25.53-.46 1.2-.67-.94 1.29-1.74-.43-1.46-1.04.32-.7.93 11.67-1.54 13.58-.11 2.51-2.53 3.24-4.01 1-3.84 2.7-14.37 3.31-18.05 0-3.06.47-24.54 1.44-25.36.47-1.21-1.43-.53-1.82 1.29-2.48-2.05.11-2.14-2.72 0-3.01.4-3.53 1.78-3.06 3.01 0 .7-4.09.85-8.27.45-12.53l1.55-1.51c-1.43-4.96-.1-6.64 4.01-5.01.59-.59 1.16-1.04 1.7-1 5.21.37 11.36 1.77 16.35 3.01 4.21.52 7.88.52 11.03 0-2.74-.11-2.59-1.13 0-2.01 7.97.92 16.13.73 24.07 2.01-.71 1.09-2.38 2.1-5.01 3.01 29.12 1.11 58.21 1.78 87.25 2.01 6.67-.03 13.39.12 20.06 0 4.24-.63 8.49-1.06 12.78-1.28l-.74-.72c.11-1.05 1.44-1.72 4.01-2.01 4.97-.45 10.1-.54 15.04-1 .53.65 1.21 1.31 2.06 1.27 8.49-.33 22.21-2.99 30.62-5.12.06-.02-.21-.52-.58-1.16-.87-.28-.86-.62 0-1 1.11-3.25 5.95-3.5 9.03-3.01 3.5-.99 7.84-1.67 10.85-2.69 8.52-2.86 16.65-7.67 24.59-10.53.92-.33 1.31-1.44 2.19.15 1.05 1.93.64 22.6.53 26.65-.13 4.71-.73 21.11-2.19 23.92-.64 1.24-1.71 1.96-2.88 2.62v.03z" fill="#fdfdfd"/><path d="m40.28 745.04c-1.38 1.11-.2 1.66 3.54 1.66l.47 1.34-4 4.01c4.48-1.59 10.19-1.18 15.03-1 7.4 1.67 5.14 2.59-.96 2.58.23 1.81 1.9 2.95 4.97 3.44 8.94 1.54 20.12 2.6 28.63 4.96 1.37.38 3.11.13 3.46 2.05-11.5-.94-23.99-1.32-35.31-3.29-3.14-.55-8.4-1.48-11.09-2.95-3.04-1.65-2.77-4.6-5.76-4.78-.19-1.62.14-3.37 0-5.01h-2c-.06 2.33.06 4.68 0 7.02v-41.12c1.94-.31 2.69.79 3 2.51 1.46 8.05-1.07 20.05 0 28.57h.01z" fill="#090909"/><path d="m135.55 723.98c2.62-.16 5.17 1.73 8.47 2.06 10.13.99 25.72.34 36.23-.05 4.24-.16 9.35-.93 13.46-2.01l-4 3.01c-29.07.12-58.37.99-87.25-2.01 8.78-2.41 18.31-2.57 28.61-.48l4.48-.52h-.01z" fill="#2b2b2b"/><path d="m272.94 716.96c2.34-.37 5.31.82 7.54-.98l.48 1.99c-13.84 2.38-27.49 6.41-41.62 7.03l1.5-3.01c4.44-.42 8.7-1.49 13.04-2.01 6.32-1.44 12.67-2.45 19.05-3.01z" fill="#3d3d3d"/><path d="m135.55 723.98c-.27.02-1.51 1.09-3.39 1.07-9.94-.11-20.12-2.38-29.7-.07-1.19.07-1.12-.92-1-2 2.18 1.02 4.94-.91 6.02-1.01 8.57-.76 19.26 2.53 28.08 2.01z" fill="#bbb"/><path d="m272.94 715.96v1c-6.58 1.05-12.82 2.27-19.05 3.01 2.84-1.3 6.02-1.4 9.03-2.01 3.28-.66 6.81-1.19 10.03-2.01z" fill="#e3e3e3"/><path d="m221.8 724.99c.99.06 2.02-.05 3.01 0-2.74 3.47-10.53 1.92-15.04 2 1.4-.71 5.67-1.87 7.02-2.01 1.28-1.14 3.84-1.33 5.01 0z" fill="#424242"/><path d="m98.45 743.04c0 2.36 1.07 6.88 1.05 10.58-.02 3.12-1.55 10.4-1.14 12.85.16.97 2.76 1.43 3.67 1.54 29.85 3.6 66.12 4.21 96.25 3.14 15.22-.54 31.81-4.24 46.57-4.04 4.25-.54 10.01-.9 5.01 2.01-3.91.54-13.58 1.2-16.39 2.17s-2.83 8.95-11.69 9.87c-9.76 1.01-23.42.14-33.61.02-1.69-.02-4.46.64-5.51-1.02 4.77-2.1 18.05-1.12 24.47-2.11 3.86-.59 7.76-2.22 11.63-2.91 0-1.39 4.64-1.09 4.39-1.09l-12.42.09c-33.39-.55-64.56.73-98.28-2.01-21.47-1.74-43.68-6.01-65.18-8.02-1.14-.95-2.65-1.05-1-2.01 16.49 2.63 33.58 2.9 50.14 5.01.05-7.67-.08-15.39 0-23.07.45-1.72.77-2.71 2.01-1h.01z" fill="#010101"/><path d="m287.98 761.09c.43-2.58.76-11.11-1.64-11.89-4.62-1.5-22.42.2-28.98-.1-2.3-.1-20.56-1.52-20.53-2.56.1-3.91 4.76-1.49 6.53-1.49h44.63v-22.56c0-3.33-2.08-9.84 3.01-8.53l-1 46.13c.8.22 2.61-.25 3.01 0 .19.12-.48 3.09 3.01 2.01-1.38.34-4.72.89-5.01 1-.43-1.44-1.53-2.01-3.01-2.01z" fill="#080808"/><path d="m231.82 726.99c1.63 6.62.13 12.38-.04 18.51-.15 5.56 1.35 12.88-1.46 17.59l-1.49-15.04c-11-.64-22.22-.55-33.09-2.02l15.49-2.04 17.59 1.04c.52-5.45-.01-11.16 1.04-16.55.31-1.6-.69-1.73 1.97-1.5z" fill="#1a1a1a"/><path d="m317.06 740.04c.14 1.61.09 7.65-1.66 8.06-1.88.43-16.73.35-18.88-.04-3.06-.55-3.22-3.87-2.01-4.02 7.84.76 15.13-2.19 22.55-4z" fill="#111"/><path d="m314.06 712.45c.19-2.49 1.96-6.22 1-9.54h3c.12 11.49.05 23.62-2 34.62-.55.99-2.01-.9-2.01-1.01 0-7.72-.58-16.52 0-24.07z" fill="#242424"/><path d="m284.74 757.84c-1.95 1.99-22.84 3.5-26.84 3.24l22.05-6.02-9.24-1.27-3.78-1.71c3.09.72 18.05-1.98 18.94 1.57.1.4-.83 3.89-1.13 4.2z" fill="#181818"/><path d="m91.43 743.04c.12-5.08.25-10.02 1.01-15.04 1.01-.43 2 2.34 2 2.51v23.07c0 1.09-2.01 4.37-1.01 6.52-3.19-1.43-1.9-6.75-2-10.03-1.96-3.1-1.96-5.44 0-7.02z" fill="#323232"/><path d="m310.05 737.02v-30.59c0-.18 1.61-1.79 2-1.5.45 1.85.93 3.52 1.06 5.47.45 6.52-.3 16.53-1.01 23.16-.16 1.5-.23 3.1-2.05 3.47z" fill="#1b1b1b"/><path d="m104.46 728v29.08c-2.04-.65-2.49-4-2.75-5.78-.93-6.59-.09-15.13.74-21.8.23-1.83-.39-1.63 2-1.49h.01z" fill="#2d2d2d"/><path d="m294 750.06c2.16.43 14.44.55 15.03 1.01 1.27.96-1.31 2.73-2 3-5.31 3.56-17.06 7.93-13.04-4.01z" fill="#101010"/><path d="m282.97 720.47c.48-3.13 3.01-2.62 3.01-1v21.06c0 1.48-3.01 1.48-3.01 0 0-5.82-.81-14.76 0-20.06z" fill="#333"/><path d="m55.32 751.06c7.68.29 14.47 1.97 22.05 2.02.02 1.99.59 2.04-1.41 1.87-7.19-.6-14.37-1.23-21.64-.85l5 3c-2.29-.4-4.73-.47-7.02-1.01-.13-3.97 4.23-3 7.01-3.01l-4.01-2h.02z" fill="#171717"/><path d="m122.51 765.1h-15.54c-2.91 0-8.21-3.44-3-4.07 1.82-.22 12.39 1.56 15.02 2.08 1.46.28 3.12-.02 3.52 2z" fill="#393939"/><path d="m307.03 730.99c-1.22 1.64-1.82-.02-2.01-1.48-.78-6.11.27-13.48 1.01-19.57 1.68 0 1.91 3.34 2 4.49.43 5.79-1.4 10.84-1.01 16.55h.01z" fill="#161616"/><path d="m98.45 743.04-2.01 1c.06-5.67-.05-11.37 0-17.04 6.05 1.13 1.99 11.89 2 16.04z" fill="#232323"/><path d="m107.48 750.06c-.11-4-1.12-7.44-1.06-11.56.02-1.38.3-6.04 2.05-6.49.58 5.15 3.14 14.16-.98 18.04z" fill="#0a0a0a"/><path d="m294 750.06v7.02c.46.49 11.7-2.48 13.04-3.01l2.01 1c-4.71 1.87-8.06 2.94-13.04 4.01-4.31-.82-3.88-5.88-2.01-9.03z" fill="#cacaca"/><path d="m273.97 727.03h12.04v2.02h-12.04z" fill="#2b2b2b" transform="matrix(.00034907 -.99999994 .99999994 .00034907 -448.14 1007.78)"/><path d="m91.43 743.04c-.05 2.33-.07 4.69 0 7.02-.27-2.57-2.86-2.83-3.01-3.01-.31-.38-.29-2.33-1-3.01.94-.1 2.58-1.4 4.01-1z" fill="#f6f6f6"/><path d="m229.82 356.94c-1.08 1.95-1.21 1.77-3.46 2.06-12.93 1.66-32.41-.23-46.22-.1-12.57.12-23.19.45-36.02 0-6.85-.23-13.76.26-20.6.04l-.16-1.02c3.43-.22 6.83-.55 10.19-.98 1.27-1.82 3.63-1.69 5.01 0 2.37-.37 3.37-1.04 3.01-2.01-12.78 1.11-26.54 1.49-39.11-1-.24-17.43-.47-34.94-.67-52.53l1.67-1.62c-2.04-3.24-.37-4.91 5.01-5.01 1.6-2.64 4.85-4.18 9.74-4.61-1.63.52-2.75.13-3.72-1.4-2.02.37-3.02.04-3.01-1 13.81-2.92 23.12-3.62 37.12-.51 3.54.79 11.11 4.35 13.37 4.23 3.01-.16 9.1-3.39 12.69-4.23 12.75-3 25.26-3.47 38.17-1.04 4.48.84 15.45 2.87 16.06 8.01 1.92 16.48-.26 39.82-.08 57.23.02 1.69-.64 4.46 1.02 5.51z" fill="#fdfdfd"/><path d="m162.62 293.77c-.59 19.47 2.51 39.24 1.05 58.71-.43 5.83-2.67 5.83-3.1 0-1-13.42.02-27.9.09-41.13.03-4.64-.75-10.49-.44-14.72.13-1.81-.07-3.46 2.4-2.87z" fill="#171717"/><path d="m114.49 288.75c9.94-2.04 26.83-1.84 36.1 2.55 1.48.7 2.49-.16 2 2.46-10.43-1.99-21.87-3.09-32.46-1.88-3.87.44-8.3 2.39-11.65 2.89-1.56.23-3.4-.16-5.01 0-2.25-1.98 9.61-5.72 11.03-6.01z" fill="#101010"/><path d="m100.45 296.77c1.49-.83 2.82 1.87 3.01 3.01 1.75 10.45.44 35.92.05 47.69-.08 2.24-1.02 4.25-1.05 6.47-1.39-2.76-1.8-4.38-2.04-7.49-.67-8.62-1.49-42.75.03-49.67z" fill="#101010"/><path d="m224.8 349.91c-1.46.18-1.8-2.62-1.91-3.59-1.21-11.21-1.37-36.02-.13-47.08.17-1.5.21-3.1 2.04-3.47z" fill="#111"/><path d="m219.79 293.75c-7.38-.32-15.13-2.92-22.51-3.05-8.73-.15-17 2.57-25.62 3.05 4.39-4.46 14.42-5.76 20.51-6.06 8.34-.4 21.25.46 27.63 6.06z" fill="#121212"/><path d="m157.61 335.38c-.13 1.3-1.79 3.46-1 5.53h-2.01v-41.63c0-.55 1.47-2.21 1.01-3.51.3-.32 2 1.29 2 1.5 0 11.78 1.16 26.8 0 38.11z" fill="#1b1b1b"/><path d="m166.64 296.77 2.01 1.48c.51 16.62 1.61 33.07-.01 49.66-.64.07-2-1.33-2-1.5z" fill="#1e1e1e"/><path d="m218.79 354.95-11.48 2.04c-9.81-.69-20.5.78-30.18.01-1.75-.14-3.86.19-4.46-2.05 15.37-1.14 30.77-1.68 46.12 0z" fill="#171717"/><path d="m141.57 354.94c1.05.88.05 1.54-3.01 2.01-1.66.04-3.34-.02-5.01 0-4.79.04-28.83.78-30.88-1.24-.53-.53-.06-1.48-.21-1.77 13.1-.34 26.08.12 39.11 1z" fill="#131313"/><path d="m141.57 354.94c2.14.14 6.91-1.3 6.01 2-3 .06-6.03-.06-9.02 0l3.01-2.01z" fill="#949494"/><path d="m227.81 257.66c1.67-.03 3.35.04 5.01 0l10.85-2.67c.9 2.54 1.78 6.7-1.83 5.68 6.01 4.13 11.02 8.82 15.04 14.04 1.49-1.83 1.94-1.8 1.31.09.29-2.99 2.26-3.38 3.64-.55 2.63 5.38-6.34 6.56-9.97 6.48-4.13 1.15-8.18 1.79-12.29 3.25-2.55.91-7.66 4.4-9.43 4.55-1.37.12-11.29-4.35-14.55-5.11-9.94-2.33-22.06-2.86-32.14-1.4-7.83 1.13-18.18 6.51-25.1 5.51-4.29-.62-9.68-3.64-14.54-4.52-9.17-1.66-19.36-1.37-28.55.02-4.79.73-17.7 5.44-20.34 5.34-1.66-.06-7.41-3.71-10-4.62-11.02-3.9-23.27-4.08-34.66-1.51-3.39.76-10.98 4.58-13.53 4.47-.73-.03-9.72-5.85-11.5-6.95-3.1-.19-4.28-2.59-1-2.01 1.1.32 2.26.24 3.69.77 4.54 1.7 6.72 5.28 11.35 4.24 2.26-2.53 4.26-3.2 6.02-2.01.09-.52.21-1.02.46-1.44.87-1.47 24.31-19.34 27.08-20.87.36-.2.92-.03 1.54.24-.32-1.79 3.38-5.27 5.01-4.01.53-.35.7-1.5 2.2-.84 34.24 9.26 72.14 11.7 107.61 9.86 10.34-.54 29.38-2.37 38.62-6.01h-.01z" fill="#fdfdfd"/><path d="m79.39 254.65c-1.26.84-3.36 2.82-5.01 4.01-2.59 1.11-3.05-.18-1-2.01 1.49-1.09 3.11-2.32 4.01-4.01.68.38 1.32 1.47 2.01 2.01z" fill="#252525"/><path d="m74.38 258.66c-9.25 6.71-18.88 17.73-29.08 22.06-1.84-2.14 2.6-5.23 4-6.53 7.36-6.81 16.07-11.68 24.08-17.54z" fill="#0e0e0e"/><path d="m113.48 277.73c.49 3.02-.74 1.61-2.43 2.03-13.08 3.22-17.58 4.73-30.43-.75-1.23-.53-2.96-.53-3.24-2.27 5.74-.84 12.42 3.4 17.54 3.48 5.43.08 12.73-3.16 18.56-2.48h-.01z" fill="#232323"/><path d="m240.85 279.71c-9.81 3.46-17.42 4-27.09-.49 5.53-1.34 10.79.96 16.55.48 3.47-.29 8.71-3.81 10.53 0h.01z" fill="#232323"/><path d="m172.65 278.72c.51 2.84-.68 1.64-2.2 2.26-2.3.92-7.09 2.73-9.36 2.81-1.23.04-12.03-2.63-12.51-3.07-.98-.9-.24-2.09 1.48-2 7.69.41 14 3.64 22.57 0z" fill="#313131"/><path d="m78.38 261.67-5.54 6-12.51 9.05c-1.13-1.15 4.6-6.17 5.54-6.99 3.24-2.87 8.43-6.77 12.5-8.05h.01z" fill="#262626"/><path d="m83.4 264.69c-.6 1.93-10.96 11.08-12.02 10.02-1.44-1.44 9.68-10.43 12.02-10.02z" fill="#313131"/><path d="m249.87 272.7c-3.33-1.27-5.73-3.67-7.01-7.01 1.19-1.09 8.11 5.87 7.01 7.01z" fill="#848484"/><path d="m91.43 289.75c1.04 1.19 2.36 2.13 3.95 2.8l-1.95 4.22 1.33.31c.62 20.97.29 41.72-.99 62.24-1.68.25-3.47.13-5.37-.37-8.19.37-21.05-.51-29.57-1.01-2.84-.17-19.61-1.5-20.37-2.19-1.99-6.85-.56-14.44-.58-21.2-.01-7.43-.92-16.56-.62-23.74 0-.13.98-1.15 1.04-2.43.55-12.86-4.32-16.63 9.72-21.41 17.78-6.07 26.99-3.61 43.4 2.79z" fill="#fdfdfd"/><path d="m93.43 296.77 3-4c.38 19.29-.67 38.84 0 58.15-4.49-.27-.18 7.65-2.99 9.59l-5.03-1.56c1.66-.08 3.36.07 5.02 0v-62.19z" fill="#050505"/><path d="m45.3 293.76c0 9.22-1.12 18.2-1.05 27.63.07 8.76 2.17 19.07 1.14 28.11-.23 2.03-1.38.95-2.1 1.93 1.15 2.64 13.16 1.27 16.54 1.52 7.15.51 14.49 1.55 21.58 2.5-4.61 2.74-37.81-.13-39.23-2.12-2.08-18.46-.28-37.46-.95-56.1-.06-2.78 1.99-4.15 4.06-5.47 1.92.56 1.92 1.44 0 2.01h.01z" fill="#1f1f1f"/><path d="m90.42 343.4c-.13 1.63-2 4.54-1 7.04.04 2.96-1.37.99-1.73-.29-2.94-10.31-.68-21.39-.23-31.78.31-7.21-.87-14.54.97-21.6 1.06-.41 2 3.3 2 3.5 0 13.74 1.05 29.7 0 43.12z" fill="#141414"/><path d="m45.3 291.76c6.88-4.33 20.32-5.7 28.3-4.73 1.95.23 13.42 3.05 13.83 4.24.79 2.34-2.06 1.4-3.25 1.23-2.77-.4-5.5-1.52-8.31-1.72-10.78-.78-20.07 1.7-30.57 2.99z" fill="#0d0d0d"/><path d="m49.3 342.89-2.04-8.47c.77-11.11-.88-23.22-.01-34.19.14-1.75-.19-3.86 2.05-4.46z" fill="#101010"/><path d="m55.32 328.86c-.4.88-2.01-1.89-2.01-2.51v-29.08c0-.17 1.35-1.58 2.01-1.5z" fill="#1b1b1b"/><path d="m204.75 243.62c6.68-.36 13.36-.9 20.05-.99.93 2.49-3.54 2.84-5 3-4.24.48-17.07 1.74-20.42.86-1.2-.31-2.19-1.54-.65-2.39 1.75-.96 4.11-.38 6.04-.48h-.01z" fill="#343434"/><path d="m124.52 242.62 10.02 2c-8.97-.45-18.31 1.09-27.07-.99.37-4.4 13.87-.47 17.05-1z" fill="#2a2a2a"/><path d="m217.79 248.64c6-.69 11.99-1.8 18.05-2-.35 1.92-2.09 1.66-3.46 2.05-7.81 2.18-18.78 2.95-26.63.95 3.78-.57 8.19-.56 12.03-1z" fill="#3c3c3c"/><path d="m108.48 245.63c3.27.32 14.24.93 16.05 2.01-6.43 1.83-17.16.64-23.64-.98-1.68-.42-2.93 1-2.44-2.03 3.46-.55 6.69.67 10.02.99h.01z" fill="#393939"/><path d="m121.51 250.64c1.44.13 2.56-.27 4.11.49 1.03.5-.14 1.45-.1 1.51l-22.06-2.01c1.25-.56 2.92-.9 5.01-1 4.33.46 8.7.62 13.04 1z" fill="#636363"/><path d="m109.48 774.13c3.61.88 7.54 3.03 11.78 3.76 5.33.92 11.85 1.07 17.3 1.26-.38 1.83-1.98 1.87-3.47 2.04-5.8.65-13.49-.11-19.6-.04-7.67-2.93-18.23 2.99-19.04-9.02 4.26.58 8.87.98 13.03 2z" fill="#151515"/><path d="m210.77 774.13 18.05-2c-1.62 4-6.49 3.17-10.03 3-1.91-.09-4.88-.95-8.02-1z" fill="#d7d7d7"/><path d="m37.27 769.11c.29 3.44-.67 1.39-2.45.94-4.71-1.19-15.46-4.41-18.61-7.96-5.09-5.74 4.51-.64 5.75-.23 6.01 2.02 10.71 2.09 15.31 7.25z" fill="#0d0d0d"/><path d="m285.98 292.76c.44 1.41.91 5.77 1.04 7.48 1.15 15.7-.94 32.82-.04 48.68l-3 3c-.25-6.17.3-12.43.04-18.59-.1-2.27-.98-4.33-1.04-6.48l-1.02-1.3-.32-26.34c-1.28-4.42-.69-9.48 4.35-6.45z" fill="#1b1b1b"/><path d="m310.05 761.09c.38.19 1.39-.15 2.01 0 1.72 2.16-7.36 6.44-9.03 7.02-2.92 1.01-9.63 3.1-12.03 1 .8-.82 2.25-2.72 2.78-2.99 3.96-2.04 11.94-1.96 16.28-5.03z" fill="#0f0f0f"/><path d="m263.92 768.11c4.54-.63 17.77-4.71 21.35-3.87.73.17 2.09 1.48 1.71 1.86-6.04.26-14.24 3.57-20.06 3.02-.16-.01-1.53-1.73-3.01-1z" fill="#cbcbcb"/><path d="m108.48 249.64c-.84 1.6-3.41.96-5.01 1-2.75.06-5.55.18-8.29-.24l-6.75-2.76c6.72.16 13.39 1.28 20.06 2z" fill="#3a3a3a"/><path d="m315.06 283.74-.32 2.84c-5.71-1.45-13.57-2.03-17.73 2.68l10.03.49c1.37 23.35 1.05 46.79.99 70.21 1.45 7.6 1.75 15.53 0 23.07-.08 14.07-.78 28.11-1 42.12-.37 2.16-1.03 2.83-2.01 2.01v-68.69c-.49-5.28-11.6-.78-12.57-2.45-.96-3.61-.38-7.41-.47-11.08-.03-1 .02-2.01 0-3.01-1.53-2.15-1.68-4.95 0-7.02-.11-15.01-.33-30.14.49-45.14 4.22-3.61 9.93-8.11 15.8-7.77 1.69.1 5.81 2.11 6.77 1.77h.01z" fill="#f9f9f9"/><path d="m310.05 365.97c.41 4.38-.07 9.51 0 14.04l-2.01 3.01c.04-7.67-.02-15.39 0-23.07.63 1.04 1.93 5.13 2.01 6.02z" fill="#202020"/><path d="m292 334.88c.02 2.34-.03 4.68 0 7.02l-2 1c.58-2.6-1.75-8.84 2-8.02z" fill="#010101"/><path d="m302.02 292.76h2.01v49.14h-2.01z" fill="#242424"/><path d="m299.02 337.89c-.65.08-2.01-1.33-2.01-1.5v-44.63c.65-.08 2.01 1.33 2.01 1.5z" fill="#171717"/><path d="m19.22 714.96.49-4.61c-1.05-5.04.11-6.35 3.49-3.92-2.38 8.59-2.08 19.63-.97 28.6l1.27-.92c-.53-4.06.04-7.43 1.73-10.11.34-6.6-.32-12.6-2-17.99l3 .94c3.38 1.38 7.68 1.93 11.03 3.01.95.35 1.71.01 2.36-.86 4.96.86 15.97 3.88 20.95 5.48.37.12.59.69.76 1.4 7.33 1.37 14.6 3.15 22.06 4.01.12.61-.18 1.53 0 2.01-1.8 1.65-7.01.39-9.03-1-7.43 0-14.78-.98-22.06-2.94 1.31.17 2.17.44 2.01 1.94-4.04-.93-3.03 1.99-4.01 5.01l-1.47.45c.33 4.61.15 9.14-.53 13.59-.21.06-2.06-1.17-3.01 0-2.59-2.16-1.84 1.66 0 3.01.12.12-.27 1.34.19 1.74 1.34 1.17 20.28-.34 23.88.26.49.66.81 1.89.35 2.06-2.52.96-27.22 1.33-28.95.33-.32-.19-.43-.73-.48-1.38l-.65-2.64c.29-15.21-3.25-7.16-1.09 2.24-2.07.61-.93 2.36.75 3.26-1.4 1.65-2.18 4.61-2.01 7.17-.04 1.49.49 3.93-.49 5l-14.55-6.01c.21-.79.64-1.84 1.27-1.82 18.2.58-.15-1.11-6.29-.19-2.68-.97-6.14-1.25-7-4.53-.79-3.01 4.62.52 5.5.52h17.55c.74-5.59-4.43-3.54-8.25-4.28-4.43-.86-9.3-1.62-13.32-3.73l-2.49 2.99c-.19-1.94.24-4.14 0-6.02-.67-3.68 1.33-3.31 2.01 0 .86-.61 1.87-.28 3.01 1 .05-3.28.72-4.94 2.01-5.01l1.35.13c.02 2.55.57 4.84 1.65 6.89.9-7.91.9-15.94 0-24.07-.9-.1-.85-.45 0-1h-.02z" fill="#f6f6f6"/><path d="m38.28 704.93 17.05 7.02c3.17.61 4.81 2.14 8.01 1 .52 2.19-.54 1.94-2 3.01-9.8-1.84-14.63-2.97-24.07-6.02 5.3-.18-3.07-.95 1-5.01z" fill="#121212"/><path d="m17.22 752.06c-.56-3.04 1.53-1.93 3.46-2.01 5.01-.2 14.18-1.94 12.59 5.01-.39.4-9.57-.68-11.03-.99-.96-.21-3.57-1.48-5.01-2.01z" fill="#222"/><path d="m40.28 745.04c2.63.86 21.21.16 25.69.07 1.79-.03 3.21-1.07 3.39-1.07 5.61-.17 11.61.66 18.05 0 2.88-1 3.23 1.65 1 3.01-13.92.87-30.22 2.13-44.13 1-2.19-.18-5.97-.05-6.86-2.67-.67-1.99-1.03-10.37 1.84-11.37.5 2.2-1.11 10.34 1.01 11.03z" fill="#010101"/><path d="m45.3 742.04c-.18-.18-2.59 2.47-3.06-2.46-.65-6.82.58-14.66.05-21.6 2.61-.44 1.8.39 2.29 2.17 1.46 5.32.71 13.14.71 18.88v3.01z" fill="#252525"/><path d="m74.38 720.98c.53.71-.13 1.04-2.01 1-5.95-.1-12.27-.72-18.05-2.01-2.27-.5-7.39-2.08-9.63-2.91-1.46-.54-2.86-.51-.89-2.13 10.2 1.92 20.34 4.33 30.58 6.04z" fill="#272727"/><path d="m50.31 724.99c.37 2.79.91 13.25-2.01 14.04-.92-5-2.88-14.41.99-18.05-.68 1.62.91 3.28 1.01 4.01z" fill="#353535"/><path d="m83.4 721.98c.05.12 2.23 1.03.49 2.03l-11.52-2.03 2.01-1c2.98.49 5.95 1.3 9.03 1z" fill="#323232"/><path d="m32.26 733.51c-.13.85-1.13 2.91-2.01 2.51v-23.07c.65-.08 2.01 1.33 2.01 1.5 0 5.51.78 14.06 0 19.05z" fill="#202020"/><path d="m19.22 740.03c.4-7.9-.54-16.23 0-24.07 1.59 5.69 1.33 13.57 1.02 19.58-.08 1.44.67 3.74-1.02 4.49z" fill="#e2e2e2"/><path d="m26.24 706.94c-3.56-.34-1.13.85-1.08 2.58.16 4.82.05 9.66.08 14.47l-1.34.37c.25 4.11-.3 7.66-1.66 10.66-1.66-1.04-1-3.81-1.02-5.51-.08-7.34-.69-15.58 1.02-22.56-2.9-.44-1.81.56-1.98 2.52-.2 2.22-.92 4.35-1.02 5.5-.81.04-1.41-.21-1.69-.89.57 6.79.13 13.11-1.31 18.94-1.58 1.33-.44 3.17-2.01 5.01-.63-.07-1.15-.19-1.3-.5-1.09-2.2.75-3.05-.27-1.65-.35.48-.87.83-1.43 1.15-.5-.32-1.09-.52-1.5-.97l-.5.97c-.07-.5-.96-1.51-1.07-3.39-.69-11.62.66-24.02.08-35.71.67-.75 15.94 8.15 18.04 9.03h-.01z" fill="#e2e2e2"/><path d="m11.2 737.02c.97-10.57-1.31-23.33 0-33.62.18-1.39.53-2.89 2-1.48 2.41 2.32.28 30.72 1.01 36.1-2.04 2.41-2.18-.47-3.01-1z" fill="#131313"/><path d="m19.22 714.96c-.03.33.02.67 0 1 .88 8.1.88 16.13 0 24.07-2.51 1.12-2.83-4.54-3.01-7.02-.62-8.69-.14-17.71-.86-26.43 3.97-4.22 4.34 5.43 3.87 8.38z" fill="#141414"/><path d="m22.23 735.02c-.62-8.77.45-18.21 0-27.07 1.23-1.63 1.82.02 2.01 1.48.48 3.73-.27 8.24-.04 12.13.08 1.29 1.04 2.3 1.04 2.43.16 5.45-.38 10.7-1.01 16.05-1.85-.15-1.91-3.69-2-5.01z" fill="#0c0c0c"/><path d="m9.19 708.94h1v26.07h-1z" fill="#f6f6f6"/><path d="m235.84 215.54.02 2.33c3.61 2.52 3.17 7.84-1.02 4.69-2.67 2.34-5.74-1.27-7.56-3.59-4.01-5.11-4.81-15.25-1.46-20.48.55-4.31 1.43-9.79 4.01-13.04 5.6-28.74-3.56-54.15-17.23-78.93l.18-1.29c-2.22-3.61-3.9-7.83-5.04-12.66-2.87.89-4.76.64-5.69-.76-1.52 1.22-2.83 1.5-3.91.84l-5.41.54c-1.53.87-3.16 1.8-4.95 1.91-18.88 1.22-40.01 1.21-58.44-1.36-.5 6.91-2.34 13.55-5.66 19.65-13.14 20.96-20.1 44.47-13.42 69.19l-.76 1.89c3.36 2.45 3.94 8.05 4.01 12.03 2.85 1.29 2.81 8.67 0 10.03l-.47 2.43c2.13 1.54.74 2.87-1.53 3.59 1.11 3.28-.63 6.65-5.22 10.11-3.04 3.06-9.97 9.48-13.83 7.94-1.73.26-1.73-.41 0-2.01l-.12-2.37c12.81-8.86 17.35-18.07 14.08-33.62-8.55-22.07-9.26-43.45 2.68-64.79 7.23-10.84 11.87-22.27 13.95-34.31l-1.5-2.32c-1.64 1.61-2.34 1.54-2.09-.21.35 4.74-10.74 31.84-12.24 32.76-.49.3-1.09.44-1.71.53l.64 3.47c-8.65 17.83-13.7 37.42-8 56.94l-.66 1.77c5.16 6.51 6.73 16.54 5.01 25.07 1.55 2.79.26 5.87-3.88 9.25-9.55 7.4-19.69 13.95-30.43 19.65-.61.55 2.18 2.36 2.36 2.37 41.53-9.95 85.93-17.48 129.14-11.77.87.12 1.71.51 2.58.94s1.71 1.02 2.53 1.63c4.04 2.84 2.04 3.84-6.02 3.01-3.67 1.93-11.11 1.57-15.04 0-11.6 2.78-25.58 3.08-37.11 0l-.89 1.01c-6.43-.21-12.82-.21-19.16-.01-5.49 2.07-11.49 3.23-18.02 3.49l-2.5 1.69c-7.18 1.43-14.35 3.17-21.51 5.21 4.45.95 8.43 2.51 11.95 4.64 5.66.63 11.29 1.37 16.92 2.14 1.15.16 1.88.53 2.14 1.88 6.7-.22 13.63.5 20.06 2.01 15.63.03 31.34.03 47.13 0 .06-2.87 1.24-3.28 3.01-1 2.31-.57 3.65-.24 4.01 1l.68-1.04c4.51.29 8.97-.03 13.36-.96 1.53-1.45 3.87-2 7-1.62l1.02-1.38c2.68-2.44 8.68-2.38 12.03-1 1.12-.04 2.42.22 2.14 1.17 8.08-2.36 11.6 3 1.88 3.84 0 .91-.25 1.75-.85 2.45-1.17 1.37-17.43 3.7-20.58 4.07-41.13 4.83-87.16 2.27-127-9.53-2.56 1.34-3.07.56-2.01-2.01-2.01 1.65-3.01 1.87-3.01-1-1.63 1.07-2.49 1.05-2.01-1-2.27 1.11-3.27.77-3.01-1-2.37 1.45-3.04.78-2.01-2.01-4.1 2.51-8.31 5.25-12.64 8.23l.6.79c2.51-1.36 3.33-.51 2.01 2.01.76 1.61-4.89 4.85-4.6 4.66l11.7-8 1.93.33c1.55-.37 1.55.29 0 2.01l-.23 1.85c-9 5.66-16.46 12.38-22.39 20.16l-4.45 3.07c-.39.94-.97 1.88-1.91 2.05-.69.13-10.79-5.07-12.65-6.18-.25-.15-.38-.49-.48-.88l-1.27.85c-2.28-1.57-4.54-2.23-7.75-1.86-.4 1.53-.4 2.87 0 4.01 2.43-.96 3.07.25 1 2.01.77.79.24 1.46-1.6 2 2.74-2.71 14.73.08 14.05 3.51s-6.57 3.84-7.43.51c-5.16 2.65-7.24 7.69-6.23 15.13l-.79.91c.27 17.27.46 34.56.57 51.86.04-2.31.55-4.54 1.43-6.73l-1.05-50.8c.11-3.28 1.12-10.31 5.06-8.36l2.01.69v19.15c-.03 27.63-.7 55.11-2.01 82.44 1.17-.29.88 1.67.89 1.56.43-11.88.8-23.77 1.11-35.66-4.11-8.69 6.99-5.67 12.03-4.01.39-7.12.39-14.27 0-21.47l1-.59c-1.63-3.12-1.63-9.93 0-13.04-5.19.65-3.55-19.91-2.67-20.61 6.12-4.87 5.85 7.63 4.67 11.58l1.95 2.35c.1 13.78.47 27.45 1.11 41 15.14 1.86 30.65 2.77 46.14 2.86l1.94 1.95c4.94 2.15 6.76.06 5.46-6.25.12-2.97.52-4.55 2.57-1.78 1.7.37 2.45 2.37 2.23 6 7.98 1.48 16.13 1.33 24.25 1.11l.6.91c29.91-2.64 60.02-2.22 90.04-1.27 5.54-.26 10.96-.5 16.27-.73-.71-1.58-1.04-3.91 1-3.01.23 1.3.56 2.64 1 4.01 2.74-1.02 5.75-1.02 9.03 0 15.92-1.69 32.2-2.74 48.14-1 .62-3.13.77-6.35.46-9.64.13-2.93.36-5.41 2.55-2.4 1.95 1.83 2.66 4.95 2.16 9.39 2.2-.41 12.2-1.32 12.22 2.04.44 23.54.42 47.2-1.34 70.8.55.08.98.18.99.3.53 6.98.05 14.86-.99 21.76 1.11 4.95 1.11 10.31 0 16.05l.95.95c-.34 5.01.01 1.35 1.05-10.98-1.42-3.68-1.42-7.69 0-12.03-1.59-5.74-1.64-12.33 0-18.05-1.35-13.78-1.64-28.54 1-42.12.23-2.32.9-3.32 2.01-3.01 1.75 7.31 2.51 14.76 2.18 22.26-.63 54.04-1.35 106.79-2.18 158.25l.85.36c.44-8.47.82-16.95 1.15-25.43l-1.27-5.74c.88-60.11 1.22-120.25 1.07-180.38 0-3.88-.02-7.7 1.2-11.45-.53-5.69-.87-11.43-1-17.23l-1 1.18c.74 12.69.91 25.5.85 38.25 0 2.09-.94 4.04-1.86 5.88-1.19-.7-1.86-2.71-2.01-6.02l-1.32-4.13c-.53-21.35-1-42.74-1.41-64.14-19.47.33-2.05-11.23 7.47-6.94l2.29-.99c-3.07-1.45 1.14-4.29 3.66-3.61 1.87-2.79 3.32-2.93 4.36-.4 6.38 13.99 4.18 45.34 4.05 61.72-.94 117.18-1.71 235.1-1 351.92.12 19.81 1.03 40.22-2.05 59.71-1.86 2.83-3.94 5.39-6.25 7.67l-1.78-1.65c-2.47.43-2.48-.04-1-2.01-4.04-.25-3.05-2.29 0-4.01-.67-1.23-.3-2.42 1.12-3.55 2.53-15.69 2.32-31.9 1.77-47.78-11.17 5.5-22.52 9.76-34.06 12.78l-1.94-1.56c-4.09.91-5.09.24-3.01-2.01l.32-1.69c-4.95 2.2-10.07 3.77-15.36 4.7.62 2.78-2.53 1.35-2.41 1.19.87-1.19 5.61 1.14 1.4 2.82-2.92.78-5.93 1.45-9.03 2.01-2.42 3-9.89 4.11-13.04 2.01-3.85 3.37-10.64 3.66-15.04 1-3.61.73-6.62 1.4-9.03 2.01-.87 1.32-3.21 2-7.02 2.01-6.16 3.09-13.87 2.98-20.06 0-1.16-1.19 2.57-2.57 4-3.01.28-.09-4.19 1.86-5.54 2.11-8.31 1.57-44.7 1.88-51.99-.77-.33-.12-.5-.66-.63-1.33-8.21.12-18.98.15-27.08-.98-.37-.05-.69-.48-1-1.02-6.97 1.41-13.83.98-21.04.31l-3.03-2.32c-6.73 1.12-16.14-.72-22.06-4.01-1.46-1.79 1.39-1.8 1.29-1.68-.81.87-7.62-.11-7.31-2.33-5.78-2.02-11.66-4.36-17.05-7.02l-.19 2.32c2.99 2.36 3.48 3.51-.81 2.7-2.28 2.51-10.75.58-11.03-3.01-3.91-.41-7.53-1.68-10.99-3.61-4.56-5.94-6.48-2.09-5.76 11.56.51 7.65.41 15.02-.3 22.13 1.86 1.91 3.46 2.54 4.83 1.91 2.9 1.6 6.12 2.53 9.64 2.78 4.55-.14 15.51.59 9.6 6.35.08.9-.18 1.58-.87 1.5-4.9-.55-9.68-.87-14.66-.52-.61 1.77-1.32.81-2.03-.98-.48.8.02 2.14 1.5 4.01 1.21-1.75 5.65-.73 5.01 2.01l12.79 3.11c.41-1.05.93-1.95 2.26-2.11-.41-3.21-.51-10.72 3.36-6.83 1.03 1.03-.91 4.79-1.35 4.82 1.64 2.42 2.98 5.09 4.01 8.02.95.42 2.29 1.9 1.54 2.43-.27.19-6.38.79-5.56-.42-1.13 1.79-2.5 2.09-4.38 1.45l-17.81-6.38c-3.2-1.42-3.83.22-1.88 4.92 6.54 3.79 14.56 7.87 22.1 7.99l1.97 2.04 3.17-.62c18 4.71 36.86 6.36 55.41 6.91 3.85 1.03 7.72 1.94 11.63 2.73 19.63.15 39.27-.09 58.95-.71l3.23 1.71 10.6-1.48c13.4 1.05 27.58.95 40.54.48l5.7-2.17c19.49-.39 39.62-2.21 58.37-8.46l6.13.6c2.65-2.09 8.24-2.64 12.03-3.01.52-1.66 4.3-3.62 6.02-3.01 3.66-.73 3 1.6-2.01 7.02-22.63 13.79-79.7 15.04-106.84 16.01-44.37 1.57-89.03 1.58-133.2-4.11-23.22-3-63.01-6.23-65.71-35.58.62-137.14-1.24-274.01-2.09-411.09-.1-16.26-4.29-47.32 3.53-61.56 11.94-21.73 60.82-43.07 81.39-58 16.62-12.06 6.83-20.36 3.56-36.1-5.3-25.54 1.5-43.99 11.87-66.79 3.3-7.24 15.03-22.75 10.35-30.61-.98-1.64-3.33-2.81-3.93-4.12-.92-2.01-.88-12.84-.45-15.46s2.98-5.19 2.93-7.11-3.51-3.73-4.01-7.97c-1.53-12.85.73-29.41.57-42.59 1.81-2.93 3.36-5.44 7.03-6.01 11.25-1.75 25.54-.73 37.09-1.02 18.59-.47 43.82-2.39 62.08 1.01 4.26.79 7.1 4.22 7.6 8.44.97 8.21 1.12 34.19.03 42.2-.45 3.34-2.9 3.96-3.11 6-.23 2.27 2.53 6.06 2.96 9.09.34 2.42.46 7.63.14 9.99-.6 4.41-5.99 6.36-6.12 10.93-.29 10.34 10.68 25.58 14.94 35.29 7.2 16.41 10.71 31.72 9.04 49.87-1.31 14.25-11.91 28.67-2.88 41.75h.02z" fill="#010101"/><path d="m324.09 753.07c-1.46 9.27-7.37 15.38-15.04 20.06-1.15-3.06 4.74-5.33 2.01-7.02.72-2.95 1.83-5.31 3.32-7.06l1.69.04c.14-.15 1.6-.04 2.48-.99 1.73-1.89 1.24-5.86 5.55-5.02z" fill="#070707"/><path d="m314.87 572.54 2.52-283.82 3.95.03-2.48 279.79c-.67 3.89-2 5.21-3.99 3.99z" fill="#f4f4f4"/><path d="m8.02 290.74h3.86v277.8h-3.86z" fill="#f3f3f3" transform="matrix(.99988472 -.01518378 .01518378 .99988472 -6.52 .2)"/><path d="m313.06 337.89c2.85 64.33-.36 132.89-1 197.56-.37 8.19-.71 16.4-1.04 24.6l-.96.47c.98-5.87-1.06-12.05-1.1-17.55-.4-54.13 1.96-108.52 1.1-162.96-1.62-3.55-1.46-10.41 0-14.04-.27-14.72.87-29.39 1-44.13l1.09.06c.05 5.39.36 10.72.91 15.99z" fill="#f6f6f6"/><path d="m16.21 349.92c.53 14.49 1.67 29.16 2.06 43.57 1.16 43.74-.97 87.66-.04 131.41-1.42 1.62-.98-1.11-1.01-1.99-.13-4.35.25-8.75.04-13.1-.11-2.38-1.01-4.56-1.08-6.94-1.98-64.52-4.72-133.99-1.97-198.1.86-.88 1.29-.21 1.3 2.05l.7 43.08z" fill="#f3f3f3"/><path d="m44.29 683.87c.03 3.62-1.34 10.44 3.57 11.05l46.57-2.03c.11.8 1.52 4.03 2 3.01l1.01-4.01c.28 2.58.61 5.25 1 8.02.24.11 1.56.07 2.01 0-.86 3.55 4.14 1.54 7.02 2.01-.13 0-1.16.9-2.43 1.04-2.45.28-5.12-.24-7.61-.05.29 3.96-1.56 9.09 3.01 11.04-3.1 1.53-2.02-.54-5-2.01.77 2.47 1.24 4.02-2.02 4.01-1.78-1.65-1.73-9.41 1-10.03-.02-1.68-.65-2.86-1.9-3.53 3.27.35-.08-5.45-.42-5.56-15.49.6-31.1 1.28-46.82 2.07-1.11 1.68-5.03 1.29-5.01-1-1.4-18.97-2.08-38.03-2.01-57.16 1.65-1.79 3.49.54 4 0 .45-.48-1.01-3.96 1.01-6.02l1.25.28c.04 16.32-.04 32.59-.25 48.86h.01z" fill="#0e0e0e"/><path d="m233.83 665.82c-.04 10.03.45 20.1.01 30.09.27.37 2.21-1.69 3-2.01l43.99 2.92c3.15.1 7.11 2.16 6.15 5.1-6.17.13-49.38-4.85-51.15-3.01-.24.26.17 3.03 0 4 7.19 1.08 27.58-.47 33.11 2.5 1.73.92.34 1.89-.62 2.42-1.53.86-6.38 2.45-8.41 3.11-2.04.07-3.27.1-2.01-2.01l-.09-1.36c-2.86.93-4.83.38-5.93-1.64-3.3.28-3.96.61-2.01 1 .19 2.4-1.84 3.88-6.09 4.47-5.27.84-6.92 1.69-4.94 2.55 2.83-.71 3.83-.37 3.01 1-1.8.45-3.96.65-5.27 1.06-1.04.33-.77 2.99-3.75 1.95l1-52.15h-.01z" fill="#f1f1f1"/><path d="m297.01 656.79c.48-8.26.63-16.61.45-25.04.52-.91 1.9-.93 2.56-.03 1.31 16.83 1.31 33.71 0 50.64.43 1.06 1.43 1.91 3.01 2.51 1.48.35 1.15 2.03-1 5.01-2.68 2.56-7.17 4.75-8.02 8.02-.25.9-.58.88-1 0-.36-.07-.8.11-1 0-.3-10.01-.76-19.94-1.39-29.79l1.39-3.3c.23-10.68 1.77-21.34 1.01-32.08 1.23-1.62 1.82.02 2.01 1.48 1.06 8.31-.22 19.78 0 28.6l1.41 12.63c.02.2-.98-3.72.59-3.6.17-4.98-.24-10.06 0-15.04h-.01z" fill="#f1f1f1"/><path d="m126.53 237.6c3.21-.9 4.87-.56 5.01 1-1.61 1.54-4.13 2.2-7.55 1.94l.53 1.07v1l-.43 1.04c-5.75-.73-11.28-.74-16.62-.04-.04.45.79 1.43 1 2.01l-.43 1.15 16.48.85c.91.54 1.33.32 1 2l-4.01 1.01c-4.11.99-9.09.53-13.04-1-2.38.07-4.04.4-5.01 1 7.78-.45 15.13.22 22.06 2.01.95 1.59 2.98.61 4.01 2.01-10.95.68-21.98 0-33.09-2.01-5.26-1.22-11.66-2.29-16.7-3.86-1.33-.42-3.05-.35-3.36-2.15 17-.67 32.95-8.95 50.14-9.04z" fill="#e6e6e6"/><path d="m280.96 636.74c-.06-.58-1.83-2.34-.99-4.01h4c.43 14.16-.56 28.46 0 42.63.1 2.48-.71 3.27 2.01 1.49.5.13.97.3 1.33.59.8.64.04 17.73-.33 20.47.19.39-.14 1.4 0 2.02l2.01-.5-2.02 2.5c-.63-1.74-2.36-2.16-3.96-2.56-14.47-3.62-31.58-1.1-46.18-5.47 2.94-1.15 3.74-1.1 7.02-1 .67-1.14 1.57-1.5 2.79-1.39 11.11 1.04 19.52 1.84 30.59 1.47 1.71 1.37 3.29.34 4.72-3.09l1-20.06c-.89-.19-.85-.52 0-1-1.05-11.03-1.73-23.58-.16-34.52.03-.19-.43 3.61-1.85 2.43z" fill="#151515"/><path d="m274.95 640.75c1.73 6.57.77 12.74 1 19.61.06 1.94-1.02 4.02 2.01 3.46-.16 9.67-.11 19.46.01 29.08 1.83-.38 1.87-1.98 2.04-3.47.74-6.65.77-15.71.96-22.6.74-1.53 1.4-.86 2.01 2.01v1l-1 20.06c-.24 1.09.39 2.92-.44 4.04-1.21 1.64-11.31 1.05-14.09.96-7.47-.25-16.06-1.78-23.58-2l1-2-4-.02c-.34-1.68.08-1.46 1-2l9.92.52.11-1.52c5.85-.26 11.79.34 17.63.04 1.34-.07 2.2-1.02 2.43-1.04.41-2.71.94-2.45 2.01 0 3.25-2.07 2.04-10.3 1-15.04-2.14-9.67-1.74-21.26 0-31.09h-.01z" fill="#f1f1f1"/><path d="m307.04 666.82c1.38-19.31 1.14-38.81 2.02-58.15l2.01 1.48c-.67 16.55.88 33.74.04 50.2-.57 11.3-.59 21.45-9.07 29.54l1-5.01c2.52-5.54 2.82-10.95 2.64-17.32l1.37-.73h-.01z" fill="#e1e1e1"/><path d="m18.22 616.68 1 16.05c.25 6.63 2.01 14.76 2.01 20.56v19.05c0 1.23 2.16 8.45 3.01 5.52v-44.13c.05-1-.05-2.02 0-3.01 1.03.3 1.88.87 3 1-.02 8.54.02 17.14.1 25.79l-1.1 1.28 1 19.05c.7.44 1.03 1.44 1 3.01 2.03-.11 2 1.47 0 2.01-.78 2.72-5.85.38-7.02-1-3.54-8.61-2.75-14.05-3.01-23.07l-1-25.07c.02-7.34-.02-14.72.01-22.05 1.82-.06.96 3.73.99 5h.01z" fill="#eee"/><path d="m313.79 684.59c-.4.5-3.28 2.09-3.73.78 1.55-2.89 2.67-6.8 2.99-10.05 2.32-23.53-.65-49.41 1.98-73.24.16-1.5.22-3.09 2.04-3.47l-3.27 85.96z" fill="#d8d8d8"/><path d="m297.01 656.79c.7-3.42-.94-25.18 0-26.07.13-.12 2.76-.11 3.5 0 1.71.24-.98 23.29 1.51 26.08 1.5 1.22 2.02 3.16 1.55 5.82l1.45.2c.12 2.53-1 4.63 2.01 4.01-.34 4.74.77 15.34-4.01 18.05-.73.41-7.72 3.32-8.01 3.01-2.6-2.78 5-4.33 5-5.52v-50.64c-2.35-.13-1.78-.34-2.01 1.48-.8 6.31.29 14.51.04 21.16-.05 1.3-1.03 2.28-1.04 2.43z" fill="#1c1c1c"/><path d="m40.28 697.91c.1 2.05-1.46 2.01-2.01 0-.45-17.35-2.3-36.44-1.06-53.73.12-1.69-.23-2.04 1.06-3.43 3.77 11.4 1.53 24.61 1.97 36.64.18 5.09 1.35 11.22 1.61 16.53.09 1.83 1.07 3.11-1.57 3.99z" fill="#ececec"/><path d="m14.21 640.75c-.12 3.31-.45 6.32-1 9.03l-3.05-30.55.05-31.63c2.37 1.39 2.79 7.8 2.99 10.54 1.01 13.69.54 28.78 1.01 42.61z" fill="#dbdbdb"/><path d="m94.44 705.93c-1.47-3.92-1.47-2.83-5.01-3.01.27-1.04 1.19-.84 2.01-1l-.04-1.57c-2.86-2.32-24.25-.85-29.04-.43-4.31-.1-8.74.28-13.04 0-2.44.76-3.77.43-4.01-1 13.1-3.2 27.1-2.54 40.61-3.02 2.37-.08 7.29-2.7 8.39.65.67 2.05.11 6.8.14 9.39z" fill="#eaeaea"/><path d="m288.99 682.87c-.05 4.45 1.46 12.46-2.01 15.04-2.26-4.59-.95-14.97-1-21.06-.03-3.67 0-7.36 0-11.03l1-20.06c.09-2.69-.74-4.8 1-7.02l.92-.46c1.65 13.95 1.24 29.95.08 44.59z" fill="#e1e1e1"/><path d="m15.21 276.72c9.95-10.62 28.33-26.18 41.55-32.16 1.59-.72 2.71-1.29 4.58-.92.6 2.73-.83 1.7-2 2.48-14.21 9.41-29.9 17.39-41.13 30.61 2.6-.72 4.18.48 6.02 1.01-2.1.47-.32 1.19 1 2.01h-9.03l-1-3.01z" fill="#efefef"/><path d="m77.39 252.65c1.15 2.12-1.85 4.63-4.01 4.01l-.63 1.83c-9.96 6.81-19.1 14.22-27.45 22.24-1.67.71-4.25 1.6-6.02 2.01 6.54-10.13 17.48-17.81 27.08-25.07 1.52-2.52 5.22-5.88 8.02-6.02.86.39 1.96.41 3.01 1z" fill="#e8e8e8"/><path d="m302.02 656.79c.13-4.81.8-9.01 1.04-13.5.06-1.2-1.42-16.43 1.97-12.58-.36 10.65.5 21.45 0 32.08 0 .13-.96 1.13-1.04 2.43-.33 5.53 2.21 14.67-2.96 17.63 1.87-8.47.75-17.4.99-26.07z" fill="#eaeaea"/><path d="m28.25 631.72c.86.19 2.06-.15 3.01 0 .68 15.15-.92 31.09 0 46.14 2.96.69 2.62 3.7 0 5.01-.81 2.88-1.53 2.47-3.01 0 .11-.63-.16-1.48 0-2.01 1.19-15.37 1.25-31.74 0-47.13-1.05-.11-.82-1.4 0-2.01z" fill="#efefef"/><path d="m320.08 679.36c-.11.84-1.35 2.19-1.01 3.5h-.99v-47.63c0-1.34 2.08-5.1 1.01-7.51h.99z" fill="#d5d5d5"/><path d="m54.32 634.73c-1.5.69-.97 2.69-1 4.01l-1.32.34c-.25 7.02-.38 14.06-.39 21.11l-1.29 1.61c-1.63 6.8-1.28 15.5-1 22.61.08 1.94-1.03 4.02 2.01 3.46l-3.01.99v-53.14c.2-.5-.6-1.74.61-2.06 2.68-.67 4.42.98 5.4 1.05h.01z" fill="#e1e1e1"/><path d="m72.37 250.64c-.18 2.22-3.81 5.03-6.02 5.01-5.59 3.72-11.19 6.83-16.52 11.06-2.51 1.99-11.86 11.48-13.08 11.99-4.54 1.95 2.25-5.33 3-6.04 5.21-4.95 12.21-10 17.58-14.01 1.49-4.1 7.84-7.31 12.03-9.03 1.05.46 2.2.64 3.01 1h-.01z" fill="#e1e1e1"/><path d="m43.29 634.73c.94-.96 1.06-1.33 3.01-.99-1.58 3.11-.96 6.64-1 10.02-.01 1.33 0 2.68 0 4.01 1.59 4.86 1.6 10.18 0 15.04.05 4-.11 8.04 0 12.03-1.79 1.96-1.02 6.23-1 9.03l-1-49.14z" fill="#d5d5d5"/><path d="m221.8 781.15 1 1c-.21.01-1.61 1-3.39 1.07-15.84.69-31.9-.67-47.76-.07 4.81-.51 7.23-1.34 11.03-3.01l36.64-.79 2.47 1.8z" fill="#e9e9e9"/><path d="m33.26 698.93c3.12 3.33-3.93.88-5.54.01-10.99-5.96-15.12-16.87-13.5-29.1l3.8 13.73c2.67 4.52 4.89 9.62 9.29 12.77 1.59 1.14 5.73 2.36 5.95 2.59z" fill="#e0e0e0"/><path d="m35.27 669.83v26.07c-3.35.85-3.64-1.84-5.01-3.01.04-1.25.66-2.52 1.86-3.79-2.11-2.73-2.4-4.81-.85-6.24-.25-1.46.1-3.41 0-5.01 2.93-4.66 1.9-10.76 2.01-16.05 1.24 1.56 1.92 4.23 2.01 8.02z" fill="#e3e3e3"/><path d="m287.98 638.74c.6-.76.25-1.44 2-.99.2 7.84-.26 15.75 0 23.61.06 1.94-1.02 4.02 2.01 3.46-.24 11.01.18 22.08 0 33.09-1.36-.79-.93-1.13-1.05-2.45-.64-7.19.58-15.32.04-22.62l-2 10.02c.14-12.84.15-25.77.02-38.62-.02-1.69.64-4.46-1.02-5.51h.01z" fill="#151515"/><path d="m10.2 650.78c-.32 2.97-1.03 10.69 0 6.02 2.3 7.81.39 16.94.99 25.06-.93.43-3-.89-3-1.49v-43.62h.99c1.02 4.68.87 9.3 1.01 14.04z" fill="#dbdbdb"/><path d="m149.59 717.97 8.02 2.01c-16.12-.29-33.66.24-49.14-4.01l3.01-1c.75-.38 1.5-.67 2.23-.62 11.19.81 22.63 1.66 33.8 2.63.72.06 1.4.48 2.09 1z" fill="#dbdbdb"/><path d="m21.23 288.75c-.38.5-.64 1.74-1 2.01s-1.84-.08-2.51.96c-4.57 7.14.35 47.47-1.5 58.21-.47-12.96-.82-26.32-.98-39.62-.02-1.69.64-4.46-1.02-5.51.28-6.58-1-14.99 7.02-16.05z" fill="#d6d6d6"/><path d="m313.06 337.89c0-.13-.97-1.13-1.04-2.43-.25-4.39 1.1-10.02-.96-13.62.09-10.38.39-20.82-.99-31.09 2.04.68 2.67 3.79 2.91 5.61 1.69 12.73-1.07 28.47.09 41.53z" fill="#e8e8e8"/><path d="m28.25 633.73c.38 6.46 2.08 42.57.06 44.28-.18.15-.59.04-1.06-.15l-1-19.05c-.09-8.81-.74-18.56 1-27.08.33.04.69-.07 1 0v2.01z" fill="#080808"/><path d="m280.96 636.74 2-3c-.12 11.68.17 23.42 0 35.09l-2.01-2.01c.26-8.94.87-21.48 0-30.09h.01z" fill="#cdcdcd"/><path d="m182.69 258.66c-8.71 2.94-36.42.72-47.13 0-.87-.28-.86-.62 0-1 8.63.44 18.48-1.24 26.07-1 1.56.05 4.93 1.82 7.53 2 4.47.32 9.05-.2 13.53.01z" fill="#aaa"/><path d="m278.96 710.95c.43 1.43 1.54 2 3.01 2.01-2.87.82-6.04 2.26-9.03 3.01-2.98 1.49-6.64 1.89-10.03 2.01.77-3.76-3.93-.31-3-4.01 1.56.85 2.93 0 4 0 4.68-.84 9.24-2.16 13.66-3.95l1.38.94z" fill="#141414"/><path d="m28.25 682.87c.99.08 2.02-.05 3.01 0 .47 2.82 5.35 6.44-1 10.03-.88-.75-1.33-1.36-2.01-2.01-.4-2.41-4.85-7.08-5.01-5.01-1.33-1.91-1.21-2.09-2.01-4.01 2.42-.14 4.65.81 7.02 1z" fill="#3c3c3c"/><path d="m320.08 686.89c-3.33 8.71-12.07 13.28-20.05 17.04l16.54-15.04z" fill="#dbdbdb"/><path d="m263.92 713.96c6.71-1.75 16.5-7.65 22.68-8.92 2.29-.47 1.57 2.61 1.35 2.86-.31.36-7.59 2.57-9 3.05-5.56 1.9-9.52 2.96-15.04 3.01z" fill="#d5d5d5"/><path d="m67.36 247.63c1.41 3.86-8.08 8.19-12.03 9.03-3.16 2.08-7.34 5.7-10.29 7.26-.82.43-3.9 1.81-3.74-.23 5.15-1.85 21.94-16.92 26.06-16.06z" fill="#dcdcdc"/><path d="m211.77 253.65 4.01 3c-4.05-.48-7.99-.09-12.03.01-4.8.49-9.48 1.15-14.04 2.01-1.28-.1-2.7-.81-4.01-1 8.51-3.07 14.97-3.12 24.07-4.01.66-.06 1.34.07 2.01 0z" fill="#313131"/><path d="m294 697.91c8.03-.05 9.71-6.11 16.54-9.04-.04 1.29-2.23 4.06-3.11 4.91-2.25 2.2-14.02 9.93-16.44 8.12l2.01-4c.3.06.68 0 1 0z" fill="#cbcbcb"/><path d="m16.21 762.09c1.82-.1 20.87 6.62 20.52 7.67-.05.15-2.71.14.54-.65 1.08 1.21 1.48 2.52 2.01 4.01-8-1.97-18.35-3.64-24.07-10.03z" fill="#d3d3d3"/><path d="m26.24 702.91c-6.64-2.42-16.07-7.29-17.04-15.03z" fill="#dedede"/><path d="m21.23 595.62c1.77-.22.95 2.27 1 3.5.17 4-.16 8.03 0 12.03.18 4.29 1.28 9.29.92 13.88-.07.95-.47 4.78-1.93 4.68v-34.1z" fill="#dbdbdb"/><path d="m24.24 677.85c.55-14.61-.74-29.54 0-44.13z" fill="#d3d3d3"/><path d="m231.82 357.95c-.32-.94-.08-5.07 0-6.52.07-1.25-.78-4.31 1.49-3.51 1.02.36.22 2.85.76 4.25 1.5 3.85 3.24 4.3 6.77 5.79-2 .08-5.66 2.12-8.47.91-.63-.09-.42-.53-.55-.91z" fill="#fdfdfd"/><path d="m55.32 711.95c-4.19-.8-8.46-1.71-13.01-3.56-1.62-.66-4.56-.98-4.04-3.46.68-.67 2.01-1.05 2.93-.51z" fill="#d5d5d5"/><path d="m257.9 708.94 2.01 2.01c-5.81 1.9-12.16 2.54-18.05 4.01-.49-1.45-2.05-.78-3.01-1 4.95-2.9 13.23-7.07 19.05-5.01z" fill="#d7d7d7"/><path d="m307.04 443.19c-.12 2.92-.79 4.92-2.01 6.02v-22.06l2.01-2.01c-.09 6 .05 12.04 0 18.05z" fill="#d6d6d6"/><path d="m35.27 669.83-2.01-8.02c.13-6.5-.27-13.07 0-19.57.05-1.22-.75-3.73.99-3.49l1.01 31.08z" fill="#777"/><path d="m14.21 640.75c.22 6.34 1.9 13.36.99 20.05-1.23 1.61-1.82 0-2.01-1.47-.35-2.79-.02-6.59 0-9.55s-.81-7.05 1-9.03h.01z" fill="#e4e4e4"/><path d="m69.36 249.64c-3.73 3.36-8.02 6.03-12.03 9.03l-2.01-2.01c3.13-2.06 6.22-4.19 9.4-6.2 1.28-.81 3.21-.32 2.64-2.83.64.13 1.5 1.79 2.01 2.01z" fill="#1d1d1d"/><path d="m312.05 535.45c-.11 11.41.22 22.73-1.01 34.09l-.99-9.02c2.91-7.53-.9-17.36 2.01-25.07z" fill="#777"/><path d="m305.03 599.63c2.07.27 1.83 4.03 2.08 5.53l-2.08 18.54z" fill="#d1d1d1"/><path d="m207.76 717.97c1.53-.78 3-.74 2.01 1-6.79.93-12.31.82-19.05 1v-1c3.6-2.54 13.36-3.54 17.05-1z" fill="#d4d4d4"/><path d="m62.34 699.92c1.04-1.66 3.81-1 5.51-1.02 4.01-.04 23.96-.6 25.58 1.03 1.94 1.96-1.11 1.82-2.01 2-.7-2.31-2.59-1.94-4.46-2.07-7.88-.53-16.59.24-24.62.06z" fill="#0e0e0e"/><path d="m307.04 455.22c-.11 7.73.31 15.41-1.01 23.07-1.74.23-.94-2.27-.99-3.49-.12-3.01-.2-6.57 0-9.54.49-3.31.73-6.69.72-10.12l1.28.09z" fill="#656565"/><path d="m135.55 257.66v1c-6.42-.43-13.84-.75-20.06-2.01 5.78-2.36 13.96.69 20.06 1z" fill="#868686"/><path d="m307.04 455.22c-1.97 1.59-.71 5.16-.95 7.61-.13 1.27-1.04 2.29-1.05 2.42.34-5.2-.47-10.92 0-16.05.08-.88 1.37-4.97 2.01-6.02-.03 4 .06 8.03 0 12.03z" fill="#a7a7a7"/><path d="m10.2 656.79c.09 6.13.25 12.44 0 18.56-.05 1.22.75 3.73-.99 3.49.6-9.15-1.3-19.22.99-28.07.06 2.01-.03 4.01 0 6.02z" fill="#f5f5f5"/><path d="m303.03 768.11 2.01 1c-3.89 1.61-8.13 2.05-12.03 3.01l-4.01-1.01c-.07-1.22 1.48-1.46 2.01-2 3.23-1.01 6.59-1.84 10.08-2.47l1.96 1.46z" fill="#b9b9b9"/><path d="m221.8 713.96c3.09-.58 4.09.09 3.01 2.01-4.77 1.27-10.14 2.34-15.04 3.01-.27-.96-1.15-.95-2.01-1l-.65-1.28c6.15-.66 10.37-1.56 12.69-2.73.64.09 1.42-.13 2.01 0z" fill="#c2c2c2"/><path d="m18.22 658.8c-1.83-7.78-1.02-16.96-1-25.07 2.02 7.84.76 16.89 1 25.07z" fill="#c6c6c6"/><path d="m203.75 256.66c-3.83 2.41-9.64 2.35-14.04 2.01.09-.56-.17-1.89 0-2.01.56-.42 11.72.06 14.05 0z" fill="#5c5c5c"/><path d="m23.23 685.88c-.14-3.71.58-1.34 1.99-.48 1.85 1.14 3.64 2.43 5.55 3.48l-2.52 2.02c-1.78-1.69-3.47-2.81-5.01-5.01z" fill="#d7d7d7"/><path d="m40.28 697.91c2.36.73 2.75.67 5.01 1 .93.14 1.82.86 4.01 1-3.07 2.08-7.43.61-11.04 1-.04-1 .03-2.01 0-3.01.63.11 1.48-.16 2.01 0h.01z" fill="#b0b0b0"/><path d="m285.98 665.82c0-6.42-.85-14.01 1-20.06-.21 6.49 1 13.96-1 20.06z" fill="#151515"/><path d="m15.21 276.72 6.02 1.01v.98c-2.37-.7-3.53.47-5.01 1.01-.35.13-.68.86-1 1-.41.18-3.32.73-4.02.49.03-2.37 2.84-3.24 4.02-4.5z" fill="#fdfdfd"/><path d="m318.85 568.55-.1 12.05-3.95-.03.07-8.03z" fill="#a1a1a1"/><path d="m99.44 672.84c-3.94.73-1.26-6.73-1.99-9.03 3.33 1.49 1.66 6.18 1.99 9.03z" fill="#2d2d2d"/><path d="m19.22 632.73c-1.95-4.52-.86-10.9-1-16.05 1.99 4.53.81 10.88 1 16.05z" fill="#c6c6c6"/><path d="m225.81 722.98-4.01 2.01c-1.52-.09-3.54-.16-5.01 0l-2.5-1c3.82-.64 7.7-.65 11.52-1z" fill="#c2c2c2"/><path d="m297.01 671.84v4.01c-1.31.27-1.61-1.86-1.75-2.75-.52-3.43-.17-6.86-.25-10.29l2.01 9.03z" fill="#3a3a3a"/><path d="m224.81 674.84c.54.11.96.24 1 .43.62 3.51-1.04 6.55-.04 2.07.19-.87.59-1.69 1.04-2.51.15-10.4 1.11-20.69 1.01-31.08 3.09-.5 1.54.76 2 2 .78 16.23.92 32.53.4 48.91-10.59-1.33-21.23-1.92-31.91-1.73l-1.58-1.04-21.06-1c-.05.96-.4 1.21-1.14 1.04 5.51.17 10.56.82 15.18 1.97-17.93 1.2-35.98 1.88-54.15 2.01-12.18.78-23.16 2.06-35.1 4.01.1 2.13-1.49 2.09-2.01 0-.51-2.47-1.23-12.62-.15-14.07.13-.18.59-.11 1.15.03l3 6.01v-49.13c1.24-1.62 1.83.02 2.02 1.48 1.5 11.79-1.78 25.67 1.01 37.62 1.01.43 2-2.34 2-2.5v-40.62h2.01v21.56c0 1.08 2.02 4.36 1.01 6.52h.98c-.85-1.88 1.01-4.62 1.01-5.52v-22.56h47.64c.11 0 1.5 1.39 1.5 1.5v44.13c0 .17.98 2.93 2 2.51 2.26-15.58.02-31.59 1.47-47.2l1.16-.69 57.6-.8c1.75 1.22.84 31.61.94 36.66z" fill="#fdfdfd"/><path d="m189.71 693.9c12.19-1.84 25.29-.87 37.7.27 4.42.41 4.14 7.18-.59 4.74-8.78-1.93-24.24-2.7-33.56-3.05-19.17-.73-38.53.63-57.7.04 17.36-1.12 36.71-1.92 54.15-2.01z" fill="#e4e4e4"/><path d="m229.82 645.76c.46 1.25.92 1.42 1.07 3.39 1.24 16.31-1.07 34.28-.08 50.76-1.81.78-3.15-.81-4.01-1 4.61 1.04 3.98-3.42.5-4.01-12.58-.33-25.02-1.07-37.61-1l-16.04-1.01c-.3-2.67.08-1.83 2-2l21.06 1c11.08.03 22.2-.4 33.08 2.01v-48.14h.02z" fill="#191919"/><path d="m97.44 691.89c-.11-4.66.08-9.38 0-14.03 2.54-3.34 2.07 7.04 2 8.01 0 .15-.96 1.13-1.04 2.43-.25 3.84.25 7.77.04 11.61-1.79-.81-.95-6.09-1-8.02h.01z" fill="#adadad"/><path d="m226.81 674.84c-.07 5 .06 10.04 0 15.04-3.48-2.83-1.92-10.58-2-15.04h2.01z" fill="#242424"/><path d="m141.57 690.89c5.64.86 11.4.7 17.05 0 1.91.11 4.7-1.11 4 2-19.81-.74-39.38 1.47-59.16 1-.18-1.49 2.69-1.48 3.8-1.69 10.83-2.09 23.2-1.38 34.31-1.3z" fill="#303030"/><path d="m218.79 639.75c2.88-.46 1.66.6 2.15 2.33 2.08 7.53.51 24.7-.26 33.15-.1 1.11-.46 5.55-1.88 5.65v-41.12h-.01z" fill="#202020"/><path d="m141.56 684.88c.18 1.46-2.62 1.8-3.59 1.91-10.78 1.22-21.79 2.28-32.51 1.08.38-1.82 1.97-1.88 3.47-2.04 10.81-1.19 21.77-.94 32.63-.95z" fill="#121212"/><path d="m187.2 687.88c-.85-.09-6.61-.77-5.51-3l17.59-.05 16.5 3.06c-9.17-.69-19.58.93-28.58 0z" fill="#171717"/><path d="m155.61 644.26c.09-.34 1.36-1.53 2-1.5.74 11.81-.08 23.25 0 35.09-1.01.43-2-2.34-2-2.5 0-6.95-1.33-25.84 0-31.09z" fill="#090909"/><path d="m169.65 661.31c-.11 1.87-1.1 5.29-1.01 7.51h-.99v-27.07c.65-.08 2.01 1.33 2.01 1.5 0 5.9.34 12.23 0 18.05z" fill="#070707"/><path d="m212.77 644.76h2.01v23.07h-2.01z" fill="#0c0c0c"/><path d="m196.73 691.89c-6.77-.02-14.66.86-21.06-1 6.19-.57 15.06-.41 21.06 1z" fill="#444"/><path d="m158.62 690.89c-4.65 1.68-12.32 1.68-17.05 0 5.62.04 11.46-.32 17.05 0z" fill="#171717"/><path d="m54.32 634.73c12.99.89 26.08 1.2 38.97 3.15.32 2.46.99 4.85 1.18 7.35 1.15 14.82-2.01 33.54-.04 47.68l-.12 1.34c-15.71.23-31.47 1.06-47.25 2.49-4.71-.47-5.96-10.98-2.78-12.86-.65-3.69-.32-6.7 1-9.03l1.34.38c-.13 4.39.18 8.74.93 13.04.95 1.68 6.51 1.59 3.74-.38l-2.02.33c-1.09-.79-1.25-24.11 1.01-26.4 1.15.68 1.69 1.64 1.53 2.92-.88-9.01-.39-17.67 1.47-25.98-1.42-3.67-1.08-5 1-4.01h.01z" fill="#fdfdfd"/><path d="m48.3 635.73c1.16-.14 1.37.08 1.36.91-.16 11.68-.55 23.47-.95 35.21-.03 5.08-.04 10.14.05 15.2.02.92 1.24 1.24 2.55.82l33.08-.99c.24 1.54-1.88 1.17-3.02 1.47-6.16 1.6-30.77 5.01-34.56.49-2.25-2.68-1.43-10.4-1.53-14.01-1-3.79-1.14-8.28 0-12.03 1.29-2.83 2.31-13.44 0-15.04-1.29-1.31-1.32-2.72 0-4.01l1.01 2h.98c-.05-3.88-.45-6.41 1.01-10.02h.01z" fill="#141414"/><path d="m53.32 638.74c-.31 15.35.24 30.78 0 46.13-1.82-.38-1.88-1.97-2.04-3.47-.68-6.24-.8-13.3-.96-19.6-.22-8.98-.5-18.26 1.01-27.07l2 4h-.01z" fill="#2b2b2b"/><path d="m56.33 639.24c.09-.34 1.36-1.53 2-1.5-.12 12.73.38 25.41 0 38.1-1.06.4-2-3.3-2-3.5 0-7.35-1.41-27.55 0-33.09z" fill="#1a1a1a"/><path d="m91.43 671.84h-2.01v-29.08c.77-.58 2.01 2.03 2.01 2.51v26.58z" fill="#121212"/><path d="m233.83 665.82c.02-4.19-.75-27.47.94-28.64l43.13-3.39c2.52 9.98.22 20.04.05 30.03-.43 2.82-2.14 2.59-2.49-.28.18-7.59 0-15.19-.52-22.78-1.45.54-1.27-3.59-1.27-3.38.3 16.21.21 32.64-.68 48.85l-1.05.66c.23.56.4 1 .31 1.05-.52.33-1.93.41-2.69.45-5.85.29-11.9.24-17.68-.51l-.39 1.32c-3.21-.25-6.42-.35-9.64-.32 5.03 2.18 5.7 3.51 2.01 4.01-1.36 1.13-3.7 1.46-7.02 1 1.71 3.12-3.06 4.19-3.3 2.21l.29-30.29z" fill="#fcfcfc"/><path d="m274.95 640.75c-.19 10.34.25 20.75 0 31.09 1.11 4.46 2.04 11.59-1 15.04-.59.12-1.35-.08-2.01 0l1.01-50.14c2.28.49 1.61 2.58 2 4.01z" fill="#161616"/><path d="m268.93 668.33c-.11 1.25-.72 4.4-.99 6.03-.25 1.49-.04 3.09-2.01 3.5l1-37.1c1.01-.43 2 2.34 2 2.5 0 7.96.66 17.33 0 25.07z" fill="#0f0f0f"/><path d="m251.88 687.88c.13 0 1.13 1.01 2.43 1.04 7.2.17 14.45-.21 21.64-.03-.35 1.93-2.1 1.65-3.47 2.04-8.98 2.52-21.67.08-30.63-2.05 2.15-1.27 7.4-1.07 10.03-1z" fill="#343434"/><path d="m229.82 713.96c-3.01 1.89-4.71-1.01-2.01-3.01-.53-.37-1.12-.53-1.77-.53-2.9.01-19.41.23-20.32.67-.11.05-.07.41.02.86 5.39.84 10.73.84 16.05 0 .57-1.91 1.44-1.9 2.01 0 5.9-1.16 2.8 4.17-2.01 2.01-.59 1.84-1.37 1.85-2.01 0l-.1 1c-9.88 1.06-19.81 1.94-29.78 2.62l.8 1.39c.87.28.86.62 0 1-10.95.29-22.14.2-33.09 0-3.48.01-6.16-.66-8.02-2.01-.76-1.56 3.97-.9 3.75-.9-13.74.18-27.78-.85-41.65-2.98l-.2.88c.43.97-.57 1.3-3.01 1-3.46-.95-5.4-3.31-8.02-2.01-5.44.65-5.98-10.98-2.95-12.82 3.27 1.46 6.59 1.72 9.97.78 31.57-2.28 67.31-2.04 98.79.99 4.38.42 19.66.28 22.57 2.5 1.27.96 1.44 7.08.98 8.54z" fill="#fdfdfd"/><path d="m227.81 710.95c.37.39.14 2.8 2.01 3.01-.62 2-3.56 1.62-5.01 2.01-.82-.48-2.26-1.84-3.01-2.01 2.62-.84 6.48-1.78 2.01-2.01-.96-2.59 2.12-2.26 4.01-1z" fill="#e0e0e0"/><path d="m111.48 714.96c-1.27-.26-4.94-.48-5-2 10.55.12 21.06 2.19 31.57 2.95 2.25.16 16.66-.59 16.58 1.55l-5.02.5c-12.48.12-25.86-.54-38.11-3.01h-.01z" fill="#333"/><path d="m219.79 713.96c-.06.56.2 1.83-.01 1.98-.73.52-9.55.75-11.34 1.23l-.68.79c-6.12-.35-11.83.87-17.05 1-3.04.08-10.06.46-12.03-2l41.12-3.02z" fill="#2f2f2f"/><path d="m195.72 703.93 17.05 1c3.26.13 4.18.41 7.02 1-.09.55-.2.99-.42 1.05-4.79 1.31-11.69.55-16.63-.05-6.35-.23-12.62-1.62-19.04-1.01 2.28-3.14 8.46-1.9 12.02-2z" fill="#090909"/><path d="m136.54 703.94-1.48 2.01-31.6.99c-1.59-1.21 0-1.83 1.47-2.01 10.23-1.24 21.29-.89 31.61-.99z" fill="#0c0c0c"/><path d="m227.81 710.95c-1.6-.79-3.37.92-4.01 1s-1.34-.04-2.01 0c-5.32.84-10.67.84-16.05 0-1.09-.24-3.26.82-3-.99 4.67-1.65 9.64-.86 14.52-1.02 3.95-.13 6.89-2.88 10.54 1.01z" fill="#2a2a2a"/><path d="m125.52 710.95h-23.07v-2.01h21.56c.17 0 1.58 1.35 1.5 2.01z" fill="#363636"/><g fill="#e0e0e0"><path d="m219.79 705.93c1.78.37 4.71-1.31 4 2-6.76-.6-14.63 1.29-21.05-.99 5.29.19 12.31.7 17.05-1z"/><path d="m212.77 704.93c-5.51-.22-12.15 1.01-17.05-1 5.33-.15 12.29-.73 17.05 1z"/><path d="m221.8 711.95c-4.71 2.14-11.07 1.09-16.05 0 5.32-.23 10.74.32 16.05 0z"/></g><path d="m251.88 705.93c3.37.23 6.63 0 10.02 0 .72 2.78-2.24 2.44-4 3-6.22 2.01-12.82 3.08-19.05 5.01-1.59-.37-2.39.93-2.01-2 5.16-1.15 8.86-1.85 13.04-5.02-.13-.56.53-.89 2.01-1z" fill="#232323"/><path d="m251.88 705.93c-.39.86-1.66.74-2.01 1-3.5-.09-7.04.14-10.54 0-1.21-.05-3.73.75-3.49-.99 2.54-.4 4.84-.99 7.46-1.06 3.57-.1 5.96.87 8.57 1.05z" fill="#050505"/><path d="m281.97 689.89c.6-6.43-1.28-13.98 1-20.06-.12 7.11.52 13.18-1 20.06z" fill="#cdcdcd"/><path d="m274.95 671.84c3.28-.4 1.46.8 1.59 2.46.31 3.97.61 7.92.46 11.92-.67 1.94-2.89.62-3.05.65.72-5.03.88-9.96 1-15.04h-.01z" fill="#fcfcfc"/><path d="m89.42 702.92c3.98-1.27 4.78-1.3 5.01 3.01.04 3.33.56 7.08-1 10.03l-37.11-10.04 1.48-2c10.59.24 21-1.54 31.61-1z" fill="#ececec"/><path d="m77.39 706.94c.45.1 1.62 1.2 2.93 1.54.92.24 14.08 1.73 11.11 4.47-.94.86-26.13-5.5-24.06-7.01 3.38-.25 6.76.26 10.03.99h-.01z" fill="#1e1e1e"/><path d="m77.39 706.94c-.1-.04-1.09-1.94-1-2l15.03 1c.24 1.74-2.28.94-3.49.99-2.02.08-9.41.42-10.54 0z" fill="#0d0d0d"/><path d="m28.25 680.86c-1.34-.69-.74-2.11-1-3.01 1.7-.39.95-3.13 1-4.51.51-13.05 0-26.53 0-39.61 1.66 1.04 1 3.8 1.02 5.51.11 10.21 1.55 33.21-1.02 41.63z" fill="#4b4b4b"/><path d="m27.24 677.85c-1.75-6.01-.93-12.67-1-19.05 2.3 5.73.4 12.97 1 19.05z" fill="#d3d3d3"/><path d="m45.3 647.77c2.72-1.79 1.91-.98 2.01 1.49.15 3.85.18 8.22 0 12.06-.12 2.46.72 3.28-2.01 1.49-.06-4.99-.03-10.05 0-15.04z" fill="#010101"/><path d="m300.03 360.94-.44 263.82c-.89 1.24-19.1 3.42-22.25 3.82-72.45 9.13-165.18 9.34-237.4-1.02-2.53-.36-11.15-1.21-12.21-2.83l-1.47-263.79c18.21 1.58 36.4 1.48 54.71 1.97 42.81 1.13 85.45 1.84 128.28 1 30.39-.59 60.5-.86 90.81-2.97h-.01z" fill="#fdfdfd"/><path d="m220.79 497.34c2.12-6.1 8.88 4.31 7.3 7.8-7.43 3.94-8.31 9.79 1.71 9.25 2.14 8.84 5.16 8.08 9.07-2.25l2.77-2.27c-8.59-.23-7.69-9.42-1.8-11.53 2.11 6.41 7.16 2.16 8.02 6.51 1.49 7.57-1.52 12.99-6.02 18.55 23.36 3.67 20.94 39.53 6.52 52.16-12 10.51-31.77 21.09-47.89 17.8-11.66-2.38-18.47-9.75-30.34-11.81-1.67-.29-1.71.61-1.5-1.98l16.05-1.01c-2.79-5.11 5.59 1.11 6.98 1.54 13.15 4.02 31.42-3.15 41.63-11.59 12.05-9.98 16.96-20.83 11.61-36.62-.6-1.79-2.36-7.44-5.08-6.01-2.02 1.06-10.84 12.42-12.97 15.12-4.19 5.33-8.04 11.05-12.07 16.51-1.47-.15-2.36-1.28-2.64-3.41-5.39-.34-10.96-1.99-6.63-8.1-.86-.79-1.34-1.91-1.34-3.11 4.87-7.98 4.08-9.75-2.38-5.27l-.14 8.41c-1.15 2.68-3.24 3.6-3.92.44-.01-3.18-6.26-4.04-4.56-7.99 1.38-3.22 12.97-11.53 16.6-13.07 2.31-1.67 7.06-4.98 7.03-.53l2 .53.58-2.47c7.81-3.05 7.19-4.44-.76-1.12l-1.83-1.42c-.2 2.36-2.54 3.69-7.02 4.01-8.41 2.94-10.86-2.31-11.03-10.03 9.65 1.07 17.66-7.41 24.98-12.53-1.48-1.04-2.03-3.49-2.92-4.52h-.01z" fill="#010101"/><path d="m229.82 438.17c3.81-.16 9.73-1.35 12.56-3.99 2.58-2.41 5.32-11.37 7.16-11.95 3.34-1.05 11.46 5.64 12.13 8.68 1.83 8.31-15.7 27.73-20.01 35.16-2.63 1.54-13.86-4.65-12.4-7.86.65-1.43 4.06-3.02 4.55-4.98-7.67 1.52-15.57 3.29-23.07 5.51-3.69 1.09-13.85 6.04-15.67 6.23-1.58.16-10.76-3.12-11.24-3.88-1.84-2.92 1.16-27.46 5.04-29.71 4.31-2.51 18.42 10 13.85 15.82.76.6 9.85-.69 10.03-2.99l-3-1 4.88-1.13c-1.12-8.31-.13-17.11-.89-25.43-.3-3.28-3.2-10.48-3.05-11.91.03-.25 3.46-3.47 3.7-3.54 3.35-1.01 15.26 7.47 16.21 10.63 1.26 4.25-2.44 24.72-.79 26.37z"/><path d="m220.79 497.34c-1.1-1.28-10.24-6.93-10.03-7.52 3.89-2.04 16.27-17.01 19.41-16.4 1.42.27 3.69 4.09 5.93 5.09 5.19 2.33 10.34-.84 7.31 8.85-.95 3.03-4.53 3.9-4.64 4.6-.05.32.9 5.83 1.08 6.37l-2.97 7.43c.79 2.54 11.72 1.46 9.99 6.61-9.95-3.82-5.9 9.58-15.01 11.03-1.48-1.32-2.68-7.31-3.02-7.53-.63-.41-6.49.96-7.94-1.64-.17-.3.15-6.58.33-6.87 1.92-3.15 8.74-.29 3.1-8.06-1.1-1.51-.32-2.64-3.53-1.96z"/><path d="m186.34 500.71c5.46 5.58 3.2 13.21-3.09 16.75-2.1 1.18-6.63.28-6.56 3.45.06 2.66 20.25-.43 16.55 7.51-.7 1.5-10.62 10.64-12.55 11.54-5.7 2.65-10.01-.26-16.06.51-.65-6.83-1.49-11.44.3-18.26.93-3.54 11.87-25.24 14.38-25.73 1.27-.25 6 3.19 7.03 4.24h-.01z" fill="#010101"/><path d="m197.73 546.48c.2-.19 1.52.28 1.89-.08s-.89-7.45.6-9.97c.68-1.15 3.59-1.55 4.98-3.03 1.28-1.36 2.36-5.69 2.65-5.9 1.34-.97 8.22 2.77 10.56 2.91 2.05.12 8.79-2.57 7.95 1.05-.29 1.23-7.53 6.96-8.07 6.95s-6.18-5.84-9.53-3.97c2 3.63-2.72 7.84-2.76 8.52-.06.79 1.43 1.97 1.42 3.01 0 1.54-3.58 4.3 0 5.36 4.09 1.2 7.24-1.13 7.35 6.19-1.83 2.46-2.35 6.63-5.58 7.06-1.37.18-11.95-4.64-12.3-5.21-.7-1.12-.41-11.69.84-12.88h-.01z"/><path d="m292.98 618.65c-1 1.24-27.58 3.68-31.58 4.04-21.48 1.91-43.72 2.45-65.18 3.01-18.65.48-36.99.87-55.64 0-.05-1.57 3.52-1.7 4.65-1.84 28.58-3.29 63.4-.47 93.11-2.18 8.93-.51 18.16-1.2 27.08-2.01s18.23-2.21 27.1-3.99c.88.03.56 2.84.46 2.96z" fill="#151515"/><path d="m139.56 374.99 2.68.58c16.48-.38 32.96.09 49.47 1.42-16.21 1.02-32.4 1.19-48.68 1.04-2.37-.02-4.56-1.05-6.94-1.08-33.3-.46-66.83.15-99.82-2.98-.4-2.71.48-1.95 2.52-2.03 9.96-.39 22.9 1.69 33.04 2.08 22.57.85 45.1.66 67.73.96z" fill="#0d0d0d"/><path d="m290.99 506.38h3.06v107.3h-3.06z" fill="#242424"/><path d="m254.9 512.37c-1.18-1.13 5.57-6.79 5.86-8.7.11-.72-4.82-8.39-3.42-10.41.26-.38 4.97-2.64 5.65-2.51.71.14 8.31 5.26 8.99 6.06 4.59 5.48 4.13 19.5-6.1 16.12-1.95-.64-3.45-3.18-4.6-3.41-2.25-.45-3.99 3.23-6.37 2.85z" fill="#030303"/><path d="m290.94 376.99h3.1v99.28h-3.1z" fill="#1e1e1e"/><path d="m40.24 532.44h3.1v77.22h-3.1z" fill="#393939"/><path d="m215.78 374.99 75.2-3c.49 3.03-.75 1.6-2.44 2.03-12.5 3.15-38 2.06-51.72 1.99-6.71.53-15.03 1.07-21.06-1h.01z" fill="#121212"/><path d="m33.99 524.41h2.45v87.25h-2.45z" fill="#1a1a1a" transform="matrix(.99998239 -.00593408 .00593408 .99998239 -3.37 .22)"/><path d="m35.27 447.2c-.73 1.49-1.86 1.93-2.01 0v-71.2c1.83.38 1.87 1.97 2.04 3.47 2.18 19.36-.02 47.36-.04 67.73z" fill="#151515"/><path d="m92.43 621.69c-3.9 1.06-8.24 1.4-13.04 1-10.33.02-21.19-.73-31.45-2.15-3.97-.55-10.28-.53-12.68-3.86l57.16 5z" fill="#1a1a1a"/><path d="m85.41 504.37c-4.44 5.69-1.4 7.84 5.01 7.01l-1-7.01c.47-.41 5.84.76 6.02 1 .46.62-3.42 12.9 0 15.02h-6.02l1-8.01c-7.15-1.09-9.31 2.29-5.01 8.01h-6.02c1.24-5.09 1.88-11.07 0-16.03h6.02z" fill="#141414"/><path d="m123.52 495.34c-1.69 1.91-9.48-10.84-12.02-11.03.06 4.07-.96 7.78 2 11.02h-5.01c2.57-2.64-.07-15.13.48-16.04 1.15-1.9 1.85-.84 3.05-.01 3.46 2.4 5.48 7.47 9.02 10.04 2.01-1.78-.89-9.69-.5-10.02h5l-2 .99v15.04h-.01z" fill="#171717"/><path d="m215.78 374.99c6.42.03 14.1.96 21.06 1-1.04 1.66-3.8 1-5.51 1.02-13.17.16-26.53.19-39.62-.02-15.22-.24-31.1-.82-46.64-.98-1.69-.02-4.46.64-5.51-1.02 25.38.33 50.83-.12 76.22 0z" fill="#434343"/><path d="m126.53 505.37c.26.19-3.79 4.41-1.49 6.02 5.21-1.63 2.51-7.96 9.52-6.02l-6.77 6.5 7.77 9.53c-6.3 1.58-6.38-4.63-11.02-7.01-.45 2.97.23 4.75 2 7.01h-7.01c-.96-2.69 1.8-1.58 2.02-2.65.39-1.82.29-8.83.07-10.95-.25-2.42-2.29-.61-2.09-2.43h7.01z" fill="#0c0c0c"/><path d="m92.43 621.69c12.57-.04 30.29.57 42.66 1.97 1.5.17 3.1.21 3.47 2.04l-59.17-3c4.41 0 9.75-.99 13.04-1z" fill="#313131"/><path d="m42.29 380.01v59.17l-2.04-18.51c1.19-12.31-1.49-27.2.03-39.16.23-1.83-.34-1.62 2.01-1.48z" fill="#353535"/><path d="m50.31 556.51v50.64c0 .17-1.35 1.58-2.01 1.5v-52.15h2.01z" fill="#4d4d4d"/><path d="m78.39 494.32c-9.55.6-4.3-.67-5.05-3.38-.59-2.11-4.25-1.66-5.98-1.62v5.02l-4.01-.02 7.52-17.04 7.51 17.04z" fill="#151515"/><path d="m105.47 495.33c-.15.13-3.76.11-3.94-.06-.64-.6.57-6.1-2.56-6.02-5.86.15-1.81 4.65-3.46 5.62l-4.07.46 7.52-17.04c1.41 1.94 7.2 16.44 6.51 17.04z" fill="#1f1f1f"/><path d="m286.97 398.07.05 35.63-2.03 17.5-.01-51.66z" fill="#333"/><path d="m279.96 419.12c.11 5.87-.56 11.21-2.01 16.05v-55.15c1.7 0 1.92 3.33 2.02 4.5.85 10.6.13 23.76 0 34.61h-.01z" fill="#2d2d2d"/><path d="m132.54 480.29v6.02c.62.62 6.12-1.89 6 .5-.11 2.1-5.79 1.28-6.01 1.5-.53.52-.67 6.88 3.32 5.84 1.05-.27 3.78-3.97 3.7-.34-2.98 2.96-8.19 1-12.02 1.51 2.98-4.71 2.98-11.31 0-16.03 3.78.53 9.02-1.47 12.01 1.49l-7-.5z" fill="#1a1a1a"/><path d="m141.52 505.41c.27.29-.13 5.13 2.56 5.95.89-.78 1.79-1.83 2.08-2.98.8-3.19-3.22-3.36 5.44-3.01-1.57 1.89-3.59 3.43-4.81 5.7-2.33 4.29-2.8 5.7-.19 10.33h-7.02c5.13-5.96-.35-11.1-4.01-16.03 1.29.22 5.54-.41 5.97.04z" fill="#151515"/><path d="m151.48 479.41c.5.58-.05 2.82.11 3.89-.91-.59-6.18-5.71-6.04-1.49s4.73 4.02 6.32 7.81c2.36 5.65-11.03 9.69-10.3 1.7 1.05-1.18 7.09 7.19 7.11-.52 0-2.42-4.58-2.68-5.6-4.5-4.09-7.36 6.45-9.17 8.39-6.9z" fill="#141414"/><path d="m49.31 383.02v39.11c-.77.58-2.01-2.03-2.01-2.51v-36.6z" fill="#3e3e3e"/><path d="m112.49 505.37c.05 1.81-3.19.11-1.88 3.37 1.06 2.61 7.06 3.8 6.68 7.99-.51 5.59-11.61 7.04-10.81-.34 1.64 2.86 8.86 4.54 8.01.51-.24-1.11-15.65-10.19-2.01-11.53z" fill="#191919"/><path d="m165.64 479.29c.22 1.51-.18 10.36-.79 10.86-1.97-.21-3.71.85-5.22 3.18 1.93 1.2 1.06 1.63-1 2.01-.66-.01-1.35.07-2.01 0-.52-.14-.92-.3-.93-.47-.19-3.82-.15-11.05.03-14.91.01-.23.4-.45.9-.66 1.72-.14 7.96-.36 9.03 0z" fill="#1f1f1f"/><path d="m58.33 479.29c-.11-.19-3.01.8-2-2 1.05-.23 5.81.71 6.02 1 .11.15-.96 2.2-1.02 3.47-.16 3.7.72 9.73-.2 12.86-.61 2.11-6.46 7-6.82 2.23-.03-.42 4.02.03 4.02-2.02 0-2.4.4-14.87 0-15.54z" fill="#1e1e1e"/><path d="m104.46 504.37c-.98 5.58-3.34 10.81 0 16.03h-6.02c1.88-4.95 1.25-10.93 0-16.03z" fill="#282828"/><path d="m166.64 491.32c-.54 3.07-5.62 4.47-7.02 2.01.19-1.96-.14-4.04 0-6.02l5.01 1.49v-4.51l-5.01 2v-5.01c2.9-1.07 7.05 3.39 6.01-2.01.31.1.81-.16 1 .51-1.6 4.58-.35 7.6 0 11.52v.02z" fill="#eaeaea"/><path d="m65.35 511.38c.12 1.27-2.74 9-4 8.02-1.13-3.63-2.04-7.52-3.51-11.04-1.31-3.13-5.82-7.18 3-5.01.5.12-.12 8.38 1.52 10.03 1.32.27 1.07-1.23 2-2 .29-.88.63-.87 1 0z" fill="#222"/><path d="m64.35 511.38c-.67-2.36.92-9.54 4-7.02.4.33.95 7.16 3.02 10.03.94-.28 1.28.05 1 1-.17.4-.64 7.31-3 5.01-.35-.35-1.69-7.48-3.02-9.47-.87-1.31-.64.29-1.01.44-.31.13-.82-.15-1 0h.01z" fill="#141414"/><path d="m283.97 578.57c.28 9.41 2.09 20.35 1.04 29.62-.17 1.5-.21 3.1-2.04 3.47-.2-11 .21-22.14 0-33.09.28-.87.62-.86 1 0z" fill="#262626"/><path d="m35.27 448.2c-.02 17.03.02 34.11-.01 51.14-1.74.23-.94-2.28-.99-3.49-.2-4.82.02-9.73 0-14.55-.72-11.05-1.07-22.71-.21-33.33l1.21.24z" fill="#151515"/><path d="m275.95 607.15c.17 1.99 3.25 6.14-1 5.52v-34.1h1c.57 9.29-.77 19.4 0 28.58z" fill="#171717"/><path d="m282.97 578.57c-.01-.72-1-2.56-1.04-4.44-.18-7.53.22-15.11.05-22.63 1.23-1.61 1.82 0 2.01 1.47.32 2.57-.05 5.83 0 8.54-.83 4.95-.92 10.09 0 15.04.02.67-.02 1.33 0 2.01h-1.01z" fill="#545454"/><path d="m58.33 611.67-1.67-10.1c1.2-6.11.41-12.32.67-18.49.05-1.23-.76-3.72 1-3.5z" fill="#252525"/><path d="m35.27 447.2v1c-1.66 1.04-1 3.8-1.02 5.51-.1 9.19-.02 18.41.02 27.59-1.66-1.04-1-3.8-1.02-5.51-.12-9.53.02-19.08.02-28.59h2.01z" fill="#1c1c1c"/><path d="m266.92 613.67v-18.05c.65-.08 2.01 1.33 2.01 1.5v15.04c0 .17-1.35 1.58-2.01 1.5z" fill="#414141"/><path d="m55.32 381.01c1.54.43 1.91 5.22 1.96 6.54.09 2.11 0 8.77-.23 10.76-.1.91-.38 3.02-1.72 2.76v-20.06z" fill="#0c0c0c"/><path d="m284.98 379.01c1.22-1.62 1.83.01 2.01 1.48.4 3.15 1.03 11.67-2.01 13.56z" fill="#4c4c4c"/><path d="m218.79 525.42c-.25.13-3.38 3.75-4 3.01l.98-5.01c-1.95.87-4.04 1.17-6.01 2.01v-1c1.4-.49 4.82-3.06 7.02-4.01 3.36-.92 2.63 2.73 2.01 5.01z" fill="#acacac"/><path d="m71.37 514.39c1.62-3.15 2.34-6.48 2.01-10.04l5.01.02c.39 1.55-1.51.74-2.04 1.66-1.19 2.15-2.87 6.72-3.98 9.36-.27-.37-.74-.64-1-1z" fill="#303030"/><path d="m269.93 381.01h1v20.06h-1z" fill="#101010"/><path d="m279.96 419.12c-.07 5.7 1.21 13.36-1.5 18.04-.82.07-.63-1.43-.5-2 1.44-5.91.17-10.81 2.01-16.05z" fill="#a3a3a3"/><path d="m156.61 479.29v16.05c-.65-.07-1.34.06-2.01 0 1.61-4.79 1.62-11.2 0-16.03.66-.06 1.34.04 2.01 0z" fill="#3c3c3c"/><path d="m65.36 611.67c.05-2.5-.11-5.02 0-7.53.05-1.21-.75-3.73.99-3.49.25 3.41 3.01 8.86-.98 11.02z" fill="#494949"/><path d="m158.62 495.34c.19-.63.95-1.47 1-2.01 2.71.34 5.01-.14 7.02-2.01.48 5.29-4.04 4.1-8.02 4.01z" fill="#3c3c3c"/><path d="m283.97 576.57c-1.69-3.92-1.67-11.33 0-15.04.1 4.99-.15 10.05 0 15.04z" fill="#262626"/><path d="m216.78 520.41c2.47-1.06 15.73-6.14 10.34.04-3.44 3.94-4.96 3.24-8.33 4.97-2.61-.62-.74-3.18-2.01-5.01z" fill="#f7f7f7"/><path d="m90.19 487.08c-2.72 2.65-8.59-1.67-4.78 7.25h-5.01c1.88-4.95 1.25-10.93 0-16.03 5.84-2.15 15.71 3.01 9.79 8.78h.01z" fill="#141414"/><path d="m84.42 487.3v-6.51c5.49-2.26 5.45 6.24 0 6.51z" fill="#e2e2e2"/><path d="m194.72 63.11c2.69.56 5.48.7 8.35.43-1.33 1.03-1.23 2.25-.33 3.58.87-.1 2.08-.04 2.24.56 2.4 9.09-2.38 9.6-10.06 9.29l.8 1.18.07 1.36c-3.43-.02-6.79.2-10.1.64-13.68.14-27.44.11-41.12 0-3.35.06-5.7-.61-7.02-2.01.3-1.57 6.97-2.1 9.33-1.99 1.07.05-18.99 2.11-21.47.49-.21-.13-.1-.75.1-1.51-.9-3.82-.79-8.75 0-12.03 23.18-1.03 45.97-.46 69.2 0h.01z" fill="#fdfdfd"/><path d="m116.49 57.04h95.28v3.06h-95.28z" fill="#e7e7e7"/><path d="m124.52 85.17c1.04-1.66 3.8-1 5.51-1.02 24.34-.3 51.17-2.06 75.24.01 1.86.16 5.3.38 4.49 3.01-24.48-.87-48.76-1.67-73.2-.99-3.66-.45-7.32-.42-10.98.11l-1.05-1.11h-.01z" fill="#cfcfcf"/><path d="m200.74 5.95c-1.42 1.49-4.1 1.83-8.02 1-3.79.42-7.62 2.36-9.54 2.54-7.79.71-20.51-3.67-30.97-2.43-2.59.31-6.92 2.53-8.14 2.52-2.35-.02-8.28-1.46-12.54-1.62-2.17-.56-2.51-1.23-1-2.01 7.67-.21 16.24-1 23.57-1h25.07c.37 0 1.65.99 2.97 1.04 6.18.24 12.43-.25 18.59-.04z" fill="#e3e3e3"/><path d="m130.54 10.96c-.13 0-1.15.89-2.43 1.04-2.23.26-5.93-.56-7.6-.04-1.03 11.82-1.03 23.53 0 35.1 1.18.17.1 3.12 3.01 1 .36-1.6 1.02-2.61 2.01-3.01 4.35-.76 2.87 1.41 3.01 5.01-3.3 1.14-4.63 2.15-4.01 3.01-2.2.24-5.6-.9-7.02 1-.78-.08-2.09.41-2.02-.51l1.15-40.97c1.03-3.15 10.92-1.07 13.9-1.64z" fill="#d2d2d2"/><path d="m192.71 93.2 17.05-3.02c-.14 5.06 1.27 10.32 3.01 15.05l-1 2.01c-1-1.16-1.33.17-1 4.01l-2.01 1-2.35-.7c-2.17-4.79-4.15-9.74-4.63-15.03l-1.04.69c-1.32-5.87-2.61-3.85-8.02-4.01z" fill="#e6e6e6"/><path d="m121.51 91.19c-2.58.77-.97 1.87-1 2.01-1.61 10.32-5.3 20.35-11.03 30.09-1.5 2.48-1.21 5.61-4.01 1 4.98-11.01 11.82-22 13.04-34.1 1.52-.65 2.6.94 3.01 1z" fill="#dcdcdc"/><path d="m216.78 42.05-3.01 1c-2.28-4.66-.43-10.98-.99-16.04l2 7.01v-22.06c1.84.37 1.88 1.97 2.05 3.47.82 7.31.2 18.93-.04 26.62z" fill="#c6c6c6"/><path d="m110.48 33.02c-.05-6.67.03-13.39 0-20.06 3.71 2.01 1.39 8.23 2.01 12.02l1.99-4c-.57 5.74 1.29 12.68-.99 18.04l-.46-1.06c-1.1 8.4-2.51-.71-2.55-4.95h.01z" fill="#858585"/><path d="m198.73 236.6c4.68.37 11.19 2.19 16.05 3.01.9 2.13-1.66 1.87-4.01 2.01l-1.82-.69c-7.4.04-15.81-.73-25.26-2.32.09-.64-.06-1.35 0-2.01 4.92.17 10.21-.38 15.04 0z" fill="#d9d9d9"/><path d="m188.7 10.96c-.45 7.2-.78 14.56-1 22.06-.07 1.33.1 2.69 0 4.01-.92 1.97-1.6.96-2.01-1-1.61-8.07-2.09-17.11 0-25.07.71-.56.87-2.25 1.5-2.01.71.27 1.25 1.92 1.5 2.01z" fill="#181818"/><path d="m210.77 52.08c.68.44 2.69-1.1 2 2-8.59-.71-18.68.99-27.07 0 1.67-.56 4.76-2.66 6.02-3.01 6.59-.53 12.94-.2 19.05 1z" fill="#d5d5d5"/><path d="m185.69 10.96c.08 8.34-.11 16.73 0 25.07-.81-.77-1.24-2.13-2.01-3.01.02-5.15-1-17.47-.05-21.46.29-1.2 1.82-.4 2.06-.6z" fill="#d7d7d7"/><path d="m110.48 33.02 1.5 8.03 1.49-8.03c.05 2-.03 4.01.01 6.02.08 3.66-.05 7.37 0 11.04h-3c-.04-5.68.04-11.38 0-17.06h-.01z" fill="#e6e6e6"/><path d="m158.62 89.18c2.79.02 5.53.67 8.34.1l11.71 1.9c-8.11.63-15.94.18-24.06.01-.18-1.14 1.15-1.82 4.01-2.01h-.01z" fill="#bcbcbc"/><path d="m124.52 85.17c3.69-.12 9.13-.74 12.03 1-4.11.11-15.06 2.38-17.77 1.28-1.48-.6-1.54-.29-1.27-2.28 2.33-.07 4.68.07 7.01 0z" fill="#ececec"/><path d="m146.58 236.6c.11.62-.16 1.5 0 2.01-4.55 1.01-11.11 2.13-15.04 0-.83-1.57-3.41-1.01-5.01-1 6.06-1.88 13.62-.96 20.06-1z" fill="#c8c8c8"/><path d="m229.82 185.46c-1.04 4.33-1.94 9.06-4.01 13.04-.05-1.1.31-2.53-1-3.01-1.95-2.22 1-12.22 4.01-13.04z" fill="#d1d1d1"/><path d="m200.74 5.95c2.76-.15 6.94-.33 9.55 0 1.47.19 3.1.77 1.47 2.01-6.08-.59-13.33 1.29-19.04-.99 2.36-.26 6.33-.91 8.02-1z" fill="#b4b4b4"/><path d="m216.78 42.05c-.08 2.55-.94 5.1 0 8.02h-3c.14-2.29-.23-4.73 0-7.02.16-1.6-.1-2.93 1.51-4.01l1.49 3.01h-.01z" fill="#f7f7f7"/><path d="m158.62 89.18-4.01 2.01c-3.33-.07-6.7.06-10.03 0-3.09-2.26 12.88-2.01 14.04-2z" fill="#484848"/><path d="m130.54 5.95 1 2.01c-5.54-.21-10.31-.87-16.05-.01.49-1.32 5.31-1.74 6.64-1.88 2.82-.26 5.6-.05 8.4-.12z" fill="#c5c5c5"/><path d="m130.54 10.96c2.59-.16 9.03-1.06 9.03 2.51v34.6c.65.08 2.01-1.33 2.01-1.5v-31.6c.77-.58 2.01 2.03 2.01 2.51v33.09c0 .61 2.07 1.93 3 1.49v-41.11c1-.04 2.01.04 3.02 0 1.81.82 1.46 2.16-1 4.01.7 7.73 1.36 15.42 2.01 23.07.48-3.98.77-7.99.87-12.04h1.13c.57-.11.82.24.76 1.07-.35-3.32.06-6.01 1.24-8.08 1.55-2.27 1.63-4.31.97-6.95 3-.42 6.02-.77 9.06-1.07 4 .05 8.03-.03 12.03 0 .51 10.71 1.18 21.08 2.01 31.09.04-7.36.71-14.38 2.01-21.06v33.1c-20.28-1.45-43.22 1.94-63.18 0-1.3-2.74 1.03-3.07 7.02-1 .64-1.4 2.08-1.93 4.32-1.56l-.31-1.44c-1.44-.52-2.45-2.2-3.01-5.01-.56-.7-1.22.3-2.01 3.01-.41 2.62-5.69 1.58-3.01-1-1.02-11.78-1.02-23.48 0-35.1 3.18-.34 6.52-.67 10.03-1z" fill="#fcfcfc"/><path d="m164.63 10.96c-1.25 2.19-5.8.3-6.95 1.07-.65.44.44 5.89-3.08 6.95l-.98-.61c.32 2.88-.02 5.42-1.02 7.63-.01.15-.94 1.13-1.04 2.43-.25 3.1 1.07 7.35-.96 9.61-1.65-2.76-1.23-25.28 0-24.57.2.11-.91 3.58-2.01 1.5.07-1.44.16-2.78 1-4.01 4.97-.14 10.06-.06 15.04 0z" fill="#cbcbcb"/><path d="m178.67 19.99 1.01.3-1.01 21.76c-.22 1.24.89 4.16-.99 4-2.09-11.49-.56-23.43-1.01-35.09 2.49.83-.49 7.31 2.01 9.03z" fill="#171717"/><path d="m180.68 20.99c-.37 6.59-.87 14.54-2.01 21.06v-22.06l2-8.01c-.1 2.99.18 6.04.01 9.02z" fill="#dbdbdb"/><path d="m120.51 47.06c-.07 0-.49.93-.98 1.01.05-5.32-3.25-34.81.98-36.11-.66 11.71 2.77 23.51 0 35.1z" fill="#373737"/><path d="m153.1 53.08c-.4-.05-3.88-.93-3.5-2 9.07-.56 17.97.04 27.07 0 .07.64-1.33 2-1.5 2-6.78 0-15.62.74-22.06 0z" fill="#060606"/><path d="m150.59 38.04c-.03.73.31 3.1-1 1.49-1.08-8.09-1.41-16.39-1-24.56l2.01-1.5c-.24 8.17.31 16.42 0 24.57z" fill="#0a0a0a"/><path d="m128.53 50.07 9.03 2c-4.5-.25-8.45 1.42-13.04 1.01-.53-.05-6.23-.93-5-3 2.99.08 6.03-.12 9.02 0z" fill="#3a3a3a"/><path d="m152.6 26c.3-4.29-.22-8.72 0-13.03 3.16-.96 2.03 3.99 2 6.01-.04 3.12-1.05 12.89-2.01 7.02z" fill="#2f2f2f"/><path d="m125.52 45.06c-.32 2.14-.51 1.92-2.01 3.01v-14.03c1.42.11 1.79 4.56 1.88 5.67.15 1.68.37 3.72.13 5.36z" fill="#0a0a0a"/><path d="m185.69 80.16c2.36-2.6 7.67.59 10.03-2.01 1.16-1.21 3.35-1.74 6.57-1.59 4.59-.13 4.09-12.06.45-9.44-.98-.72-3.04 1.75-1-3-.74-.6-6.11 1.1-7.02-1.01 4.05.08 15.29-.81 18.05.5 4.15 1.98 5.11 15.28-1.53 16.53-6.18 1.15-18.5-.05-25.54.03z" fill="#e7e7e7"/><path d="m195.72 78.15c-2.47 0-4.91.1-7.39-.12-1.33-.12-6.14-.54-6.64-1.88 3.86-.54 18.52.22 21.1-1.52 1.28-.86.47-7.13-.05-7.51-.4-1.82-.09-4.31 2.5-3 1.5.76 2.46 6.49 2.29 8.29-.67 7.21-6.41 5.74-11.81 5.75h.01z" fill="#1e1e1e"/><path d="m209.77 77.15c-.7-.86 2.05-6.85 3.99-7.02.53 3.92-.16 5.84-3.99 7.02z" fill="#171717"/><path d="m125.52 63.11v12.03c-3.51-.02-1.9.71.42 1.77 4.58-.14 8.45.27 11.61 1.24l7.02 2.01c-5.37-.04-28.58 1.08-31.12-1.47-1.79-1.81-1.5-12.61.5-14.59 1.86-1.84 8.51-.84 11.56-.97z" fill="#ebebeb"/><path d="m137.56 78.15c-10.44-.52-18.56 3.86-16.95-10.44.22-1.99 1.86-5.58 3.91-3.6.8.76-1.37 8.94 1 11.04 2.76 2.43 17.62.25 22.05 1.01l-10.02 2z" fill="#131313"/><path d="m117.49 77.15c-5.06-.88-4.47-8.03-1.49-11.02z" fill="#1d1d1d"/><path d="m209.76 51.08c-5.94-.04-11.95-.04-18.05 0 .09 1.99-1.92 2.99-6.02 3.01-1.07-.13-2.51-.13-2.72-1.45 1.27-6.42.69-13.11.71-19.61.97-.63 1.64.37 2.01 3.01.36 1.74 1 2.2 2.01 1-1.31-.97-1.65-3.43 0-4.01.38-7.31.72-14.66 1-22.06 3.36 1.13 17.94-1.56 19.63.93 1.92 12.98.55 25.98 1.43 39.18z" fill="#fcfcfc"/><path d="m209.76 51.08c.35.16.64.77 1 1-6.09-.59-13.33 1.28-19.05-1 5.12-1.43 13.41-2.13 18.05 0z" fill="#262626"/><path d="m207.76 26c.1 7.34-.07 14.72 0 22.06-.91.35-1.82-.99-2-1-4.15-.71-2.59-10.08 0-12.03.12-3-.1-6.03 0-9.03.32-2.67 1.24-2.55 2.01 0z" fill="#3d3d3d"/><path d="m205.75 35.03c-.16 4.03-2.27 8.2 0 12.03-.71 0-3.9 2.39-3.96-1.39-.04-2.29.79-7.09.95-10.16s1.71-1.25 3.02-.48z" fill="#282828"/><path d="m205.75 26c.11-3.17-.13-6.37 0-9.54.06-1.35-.83-4.17 1.49-3.5.95.27.48 10.98.51 13.05h-2.01z" fill="#6b6b6b"/><path d="m187.7 37.04c-.22 3.07.37 6.59 0 9.55-.19 1.47-.77 3.09-2.01 1.47-.05-4 .05-8.03 0-12.02.42.4 1.45.59 2.01 1z" fill="#414141"/><path d="m187.7 33.02c.17-5.83-.23-11.71 0-17.55.05-1.38-.7-4.12 1-4.51-.21 6.52.27 13.11.04 19.64-.05 1.3-1.03 2.27-1.04 2.43z" fill="#969696"/><path d="m191.7 11.96c-.32 2.84 1.33 7.53-1.99 9.03.73-2.29-1.96-9.75 1.99-9.03z" fill="#282828"/><path d="m275.95 292.76 3.65.86c-.38 14.58-.92 29.67-1.64 45.27-.34 4.12-2.71 8.57-2.01 13.05l-14.04.99c-3.57 2.67-12.69 2.23-17.05 1l-8.02.99c1.63-3.11.9-6.65 1-10.02-1.04-.47-1.41-1.19-1.42-2.23-.07-7.51-.08-15.1-.04-22.61 0-1.06.35-1.79 1.46-2.24.72-5.79-1.73-19.76 2.01-24.07-1.23-2.84 9.9-5.37 11.53-3.01 1.8-2.71 12.69-2.28 15.04 0 .92-1.89 8.62-.32 9.53 2.01z" fill="#fdfdfd"/><path d="m285.98 292.76c-3.51-.12-2.77-.62-3.01 2.46-.75 9.51-.29 21.94 0 31.64-2.54 3.06 1.16 8.59-2.01 12.03-.56-.08-.99-.17-1.01-.32-1.07-7.52 1.22-8.76 0-.34-.04.26-.46.47-.98.66h-1c.96-11.66.88-30.97.07-42.71-.14-2.03-.17-2.46-2.08-3.42.46-.68.94-1.23 1.5-1.34 5.17-1.01 2.72 1.14 2.55.41-.06-.27.37-.65.96-1.07 1.81.4 4.12-.84 5.01 2.01h-.01z" fill="#ebebeb"/><path d="m237.84 344.91c-.12 1.37-2.04 4.49-1.01 7.02-.64.07-2-1.33-2-1.5v-54.66c2.35-.13 1.78-.34 2.01 1.48.69 5.46-.29 12.42-.04 18.15.05 1.29 1.04 2.3 1.04 2.43.28 8.11.72 19.19 0 27.08z" fill="#151515"/><path d="m280.96 290.76 1 2c-2 .03-4.01 0-6.02.01-4.63.04-9.03-2.01-9.53-2.01h-15.04c-1.37 0-10.64 1.98-11.53 3.01h-3.01c-.46-.4 1.9-2.14 2.01-3.01 14.35-5.1 27.7-3.19 42.12 0z" fill="#131313"/><path d="m261.91 352.93c6.65-.27 13.4.19 20.05.01l-14.55 2.99h-27.56c-.21-.83 4.74-1.97 5-2 4.95-.53 11.9-.79 17.05-1z" fill="#131313"/><path d="m280.96 338.89c-1.38.4-1.47 1.72-2.01 0l.5-43.13c2.7 0 1.04 39.24 1.5 43.13z" fill="#0e0e0e"/><path d="m274.95 298.78c.35 6.34.69 12.7 1 19.05l-2 12.02c-.61-10.7-1.45-21.33-1-32.08 1.77-.46 1.4.26 2 .99z" fill="#070707"/><path d="m275.95 317.83c-2.29-5.73-.41-12.97-1-19.05 2.49 3.1.24 14.53 1 19.05z" fill="#ebebeb"/><path d="m276.95 249.64c.66.39 2.13.42 3.32 1.14 12.74 7.71 27.23 17.81 35.79 29.93-4.64-.74-9.58-1.74-14.31-.76-3.67.76-8.87 6.3-11.24 6.4-3 .13-14.13-4.96-19.17-5.53-6.24-.69-13.13.28-19.45-.11 4.52-1.26 8.86-.94 8.01-7.02-2.39.64.53 3.25-3 1-3.16-4.54-8.17-9.23-15.04-14.04-.03-.27 1.27-1.59.91-1.93-.48-.45-2.34.66-1.92-1.07l2.99-2.02c-3.62 1.77-7.11 1.91-11.02 2.01 4.36-2.29 10.25-3.95 15.04-5.01 4.44 1.72 5.45 1.39 3.01-1 5.18-.21 14.18 7.55 18.52 11.06 7.26 5.86 14.5 12.72 20.22 20.12 6.69-2.65 11.75-6.54 19.42-6.6-9.63-10.22-21.37-18.01-33.09-25.57-1.33-1.41-.77-1.93 1-1z" fill="#f4f4f4"/><path d="m250.88 251.64c12.02 9.52 25.67 18 35.1 30.08-8.6-2.17-14.4-10.01-21.04-15.55-5.57-4.64-11.58-8.78-17.07-13.52.62-.14 1-.92 3.01-1z" fill="#131313"/><path d="m256.9 274.71c-1.86-1.18-14.9-12.96-15.04-14.04 4.84 2.05 10.33 6.75 14.06 10.51.78.78 3.33 2.71.98 3.53z" fill="#3e3e3e"/><path d="m263.92 273.71c-5.45-4.3-10.13-9.74-16.05-13.54.95-1.35 3.29.06 4.36.65 6.06 3.36 12.17 10.11 17.2 14.89 1.19 2.33-2.06.25-2.51 0-2.26 1.99-4 .89-3.01-2.01z" fill="#272727"/><path d="m266.92 275.71.49 4.02c-1.51.4-2.17-1.67-3.01-2.02-.2-.08-1.46 3.84-3.5 2-.25-.22 1.65-5.75 3.01-6.01 1.17.92 1.68 1.28 3.01 2.01z" fill="#fdfdfd"/><path d="m16.21 282.73c7.77-1.41 20.72 3.67 19.04 13.04l-2.99-2.01c.65 1.6-1.01 3.75-1.01 4.51v52.65h2v-6.02c.58-.25 1.06-.41 1.19-.27.99 1.11.16 8.39-.19 10.3-3.01 2.99-7.76-.77-10.39.07-2.07.66-1.27 2.66-1.64 3.94-.33 11.1-.67 22.2-1.01 33.3l-.99.79v-102.29c-.96-.66-.62-1.33 1-2.01 1.84-.24 4.51.62 6.01-.49-3.01-3.37-8.94-4.5-13.03-2.52-1.07-1.06 1.31-2.89 2-3.01h.02z" fill="#f7f7f7"/><path d="m22.23 358.95c-.02 14.73.4 29.46-1.01 44.12l-.99-10.02c3.07-10.8-1.1-23.4 2.01-34.1z" fill="#bcbcbc"/><path d="m35.27 332.87c.06 3.95.79 20.28-1 22.06-.17-2.51.28-5.09.04-7.6-.12-1.28-1.03-2.3-1.04-2.43-.25-3.9 0-8.09 0-12.03.32-2.67 1.24-2.55 2.01 0z" fill="#d0d0d0"/><path d="m29.25 291.76v51.65l-2 6.52c-1.81-18.8-1.09-37.81-.01-56.67l2.01-1.48z" fill="#232323"/><path d="m24.24 338.89h-.99c.62-1.57-1.01-3.77-1.01-4.51v-39.11c0-.17 1.35-1.58 2.01-1.5v45.13z" fill="#252525"/><path d="m229.82 185.46c-.96.48-1.3-.52-1-3.01l-1.39-1.5c-.27 3.44-1.47 5.61-3.62 6.52-.82.75-1.16.08-1-2.01l-1.32-3.42c6.68-24.32-1.78-45.31-13.24-66.45-.29-1.17-.09-2.28.52-3.34-1.11-2.59.18-3.05 2.01-1 .69-.13 1.26-.18 1.43.05 1.82 2.61 4.25 7.13 4.58 9.98.72.14 1.03-.21 1-1-3.82-3.99-5.83-8.33-6.02-13.04-.4-1.78-.07-2.45 1-2.01 2.83 7.71 8.77 15.55 12.2 23.4 8.83 20.19 10.03 35.41 4.84 56.83z" fill="#f7f7f7"/><path d="m223.8 187.46c2.64-10.1 6.93-19.19 4.02-30.08 2.8-.41 1.87.48 2 2.49.43 6.57.31 16.2-1 22.58-.69 3.38-2.88 9.23-4.01 13.04-.65 2.19-2.03 9.92-4 8.01-.13-.12 0-2.24 0-3-2.02-3.17.89-10.08 3.01-13.04h-.01z" fill="#1e1e1e"/><path d="m223.8 187.46c-1.22 4.66-3.06 8.04-3.01 13.04h-2.01c.37-7 2.77-9.52 4.01-15.04l1 2.01z" fill="#dbdbdb"/><path d="m183.69 238.61c7.89.01 15.7.72 23.62 1 1.94.07 4.02-1.02 3.46 2.01-1.98.12-4.03.03-6.02 0-5.61-.08-14.22-.15-19.56-1-3.8-.6-1.53-1.82-1.5-2.01z" fill="#4b4b4b"/><path d="m131.54 238.61c4.97-.28 10.06.2 15.04 0 .06.18 1.2.2 1 .98-7.47 1.01-15.44 1.64-23.07 2.03-.96.05-4 .23-3.01-2.01 3.4-.07 6.63-.82 10.03-1z" fill="#343434"/><path d="m210.77 111.25c-2.67-5.55-4.66-10.87-5.01-17.04 3-.53 1.58.79 2.12 2.35 1.31 3.89 2.27 6.85 3.9 10.68 1.91 4.45 3.93 8.67 6.02 13.04.55 1.57.52 1.84-1 1-1.47-3.48-4.42-6.72-6.02-10.03z" fill="#2a2a2a"/><path d="m217.79 120.27c2.59 5.43 6.86 10.52 7.01 17.04l-8.01-16.04z" fill="#414141"/><path d="m121.51 91.19c1.23.2 2.72-.15 4.01 0-4.42 24.86-23.42 44.74-24.07 70.71-.41 16.19 10.77 35.26 6.76 48.86-1.98 6.7-10.15 13.98-15.78 17.81-1.38 2.53-6.17 4.73-9.03 5.01-.57.91.1 1.24 2.01 1 .29-2.24 4.86-4.22 7.02-4.01 6.63-4.39 15.77-10.67 19.05-18.05.67-3.23 3.84-2.72 4.01 0 4.63-.4 5.3-1.4 2.01-3.01-4.87 2.48-5.2 1.49-4.01-3.01-.19-2.69-.1-7.24 0-10.03-1.16-3.5-1-7 2.01-3.01.79.29 1.41.5 1.39.43-.74-3.06-2.77-8.82-4.1-11.65-.05-.11-.6 0-1.3.19 1.02 3.49.13 5.69-2.01 2.01-5.79-20.57-5-35.36 3.52-55.15 5.24-12.17 14.89-22.59 14-37.18.8-1.38 8.78.9 11.07 1.04 18.69 1.15 36.52-.53 54.65.01 5.77-1.68 8.43-.35 8.02 4.01 1.73 3.65 3.28 7.63 4.63 11.95l13.16 28.39c8.08 21.53 4.83 35.07-.91 56.24-2.02 9.84-.91 19.7 6.22 27.29l-.04 1.49c1.43-.93 9.15 5.47 8.73 5.14-3.71-2.04-6.29-4.42-7.73-7.15-5.44-2.23-10.96-15.67-6.02-20.06.34-2.66 1.23-2.55 2.01 0 2.36.02.53 2.18.56 2.02.22-1.19 1.2-5.62 1.56-6.36.28-.58 1.12-.67 1.89-.67 1.72-1.39 2.07-.39 1 3.01.34 8-1.49 13.63 4.01 20.55 2.04 2.56 3.77 2.47 5.01 3.52.73.62 1.28 1.82 2.65 2.84 4.22 3.2 22.42 13.09 23.95 15.2 2 2.77-7.52 3.06-8.94 2.92-14.88-1.5-30.98-7.97-47.75-9.93-46.57-5.44-78.5-.98-123.34 8.53-4.68.99-15.71 4.81-15.58-2.55 10.33-7.3 32.36-15.67 36.63-28.05.54-3.37.72-6.78.56-10.24l1.44.21c1.2-1.16 1.34-2.84.42-5.04-3.61-7.75-5.43-15.43-5.44-23.04-1.26-.07-1.94 1.6-2.01 5.01 2.27-.02 3.87 5.52 2.01 7.02.78 2.78-.06 2.99-2.01 1-6.94-26.33-2.56-38.77 8.02-62.18 1.35-.3 2.69-.63 4.01-1 5.94-9.84 9.62-19.87 11.03-30.09-2.46 1.18-1.81-3.39 1-2.01z" fill="#fefefe"/><path d="m104.46 201.5c0 .13-.94 1.12-1.05 2.42-.28 3.41.25 4.12-.95 7.61 1.4-9.24-2.77-16.55-5.01-25.07l2.01-1c3.52 1.7 7.07 12.5 5.01 16.05z" fill="#ddd"/><path d="m115.5 193.48c-2.39-.55-1.93.68-2.01 3.01-1.8-3.74-2.89-8.04-4.01-12.03 2.14.24 2.25.13 2.01-2.01 2.39 1.02 5.2 8.7 4.01 11.03z" fill="#ececec"/><path d="m92.43 228.58v2.01c-2.5 1.65-4.52 2.6-7.02 4.01-2.15.75-2.82.42-2.01-1 2.37-2.29 6.62-3.38 9.03-5.01z" fill="#161616"/><path d="m113.49 206.52c.04.62 1.23 1.6 0 3 1.33.04 2.68-.03 4.02 0 .51 2.04.04 2.86-2.01 3.01-1.2-.18-2.37-1.58-4.01 0 .8-1.81.32-4.52 2.01-6.02h-.01z" fill="#ececec"/><path d="m200.74 97.21c-.11-1.95-1.01-5.91 2.01-5.01-.51 7.49 3.17 13.64 6.02 20.06 12.85 28.94 21.63 39.32 14.04 73.21-.61 5.36-1.95 10.37-4.01 15.04-.47 8.98.9 12.87 6.02 20.06 2.3 1.72 1.75 2.44-1 2.01-19.97-18.82-.25-41.48-2.03-65.67s-20-40.94-21.04-59.69z" fill="#070707"/><path d="m111.48 182.45c-1.03-4.55-.99-9.84-2.05-14.49l2.04-10.57c-.22 6.47.17 12.91 1.28 19.27 1.34 7.65 5.47 15.36 6.66 22.42.17.99.88 4.62-.9 4.41-1.2-3.16-1.99-6.96-3.02-10.02-1.11-3.31-3.3-7.86-4.01-11.03z" fill="#1a1a1a"/><path d="m224.81 220.56 31.09 21.05c-11.29-3.68-23.47-10.91-32.09-19.04z" fill="#1a1a1a"/><path d="m209.75 203.51-1.59-3.01 8.61-32.08c.66 12.14-4.48 23.48-7.02 35.09z" fill="#242424"/><path d="m104.46 201.5c.06-4.82-3.75-11.41-5.01-16.05-.54-1.98-1.81-5.17-2.01-7.02-.05-2.88.61-4.54 2.01-5.01.96 8.61 6.4 17.22 7.1 25.58.07.87-.67 4.62-2.09 2.5z" fill="#222"/><path d="m109.48 123.28c-2.02-.6 0-3 .49-4.02 4.44-9.29 8.2-15.68 10.54-26.06 1.62.97 1.17 3.85.93 5.42-1.13 7.39-7.99 18.11-11.96 24.67z" fill="#232323"/><path d="m125.51 202.51c-5.6-6.88-8.41-18.21-9.01-27.07 1.4.58 2.2 4.28 2.71 5.81 2.32 6.95 4.56 14.14 6.3 21.27z" fill="#2e2e2e"/><path d="m202.75 202.51 2.5-11.03 3.5-9.03c-.41 6.27-1.3 15.4-6 20.05z" fill="#353535"/><path d="m85.41 234.6c-4.52 2.56-9.79 6.76-15.04 7.01l13.04-8.01 2.01 1z" fill="#2d2d2d"/><path d="m99.45 173.42-2.01 5.01c-.68-6.31.49-13.62.01-20.05l2 15.03z" fill="#3e3e3e"/><path d="m106.47 130.31-5 11.02c-.53-3.37.85-6.27 2.52-9.05.76-1.27-.2-2.55 2.49-1.98z" fill="#4f4f4f"/><path d="m131.53 201.5c-2.81-1.85-3.51-6.92-3.99-10.03 2.75 2 3.99 6.84 3.99 10.03z" fill="#3e3e3e"/><path d="m117.5 209.53c7.77.19 16.77-1.77 24.53-2.05 14.44-.52 28.83.37 43.12 1.08 8.5.42 17.5-1.02 25.61 2.46-7.16 3.11-17.61 4.13-25.52 4.56-22.53 1.21-47.5.26-69.74-3.05-.35-1.66.75-2.24 2.01-3.01z" fill="#050505"/><path d="m153.6 209.53h21.06v1h-21.06z" fill="#808080"/></svg>