<!-- https://phosphoricons.com/?color=03260b&size=36 -->
<!-- https://icon-sets.iconify.design/ -->

<svg xmlns="http://www.w3.org/2000/svg">
	<defs>
		<symbol id="icon-barrel" viewBox="0 0 24 24">
			<g fill="none" stroke="currentColor" stroke-width="1.5">
				<path stroke-linecap="round" stroke-linejoin="round" d="M12 7.5c4.17 0 7.55-1.511 7.55-3.375S16.17.75 12 .75S4.451 2.261 4.451 4.125S7.831 7.5 12.001 7.5m8.883 1.985A14.75 14.75 0 0 1 12 12.115c-3.167.1-6.282-.822-8.884-2.63M20.7 15.51A14.94 14.94 0 0 1 12 18a14.94 14.94 0 0 1-8.7-2.49" />
				<path d="M8.625 4.475a.375.375 0 0 1 0-.75m0 .75a.375.375 0 0 0 0-.75" />
				<path stroke-linecap="round" stroke-linejoin="round" d="M4.5 3.75c-2 5.318-2 11.182 0 16.5c.75 1.5 3.358 3 7.5 3s6.75-1.5 7.5-3c2-5.318 2-11.182 0-16.5" />
			</g>
		</symbol>
		<symbol id="icon-barley" viewBox="0 0 24 24">
			<path fill="currentColor" d="M7.33 18.33c-.83-1.16-.83-2.5-.83-3.83c1.67 1 3.33 2 4.17 3.17l.33.56v-2.28c-1.5-.9-2.92-1.82-3.67-2.87c-.83-1.16-.83-2.5-.83-3.83c1.67 1 3.33 2 4.17 3.17L11 13v-2.3c-1.5-.9-2.92-1.82-3.67-2.87C6.5 6.67 6.5 5.33 6.5 4c1.67 1 3.33 2 4.17 3.17q.15.21.27.45c-.17-.62-.28-1.2-.29-1.8c-.01-1.51.65-3.06 1.31-4.61c.69 1.48 1.38 2.97 1.39 4.48c.01.63-.1 1.27-.28 1.9c.08-.14.16-.28.26-.42C14.17 6 15.83 5 17.5 4c0 1.33 0 2.67-.83 3.83C15.92 8.88 14.5 9.8 13 10.7V13l.33-.58c.84-1.17 2.5-2.17 4.17-3.17c0 1.33 0 2.67-.83 3.83c-.75 1.05-2.17 1.97-3.67 2.87v2.28l.33-.56c.84-1.17 2.5-2.17 4.17-3.17c0 1.33 0 2.67-.83 3.83c-.75 1.05-2.17 1.97-3.67 2.87V23h-2v-1.8c-1.5-.9-2.92-1.82-3.67-2.87" />
		</symbol>
		<symbol id="icon-caret-down" viewBox="0 0 256 256">
			<path d="M213.66,101.66l-80,80a8,8,0,0,1-11.32,0l-80-80A8,8,0,0,1,53.66,90.34L128,164.69l74.34-74.35a8,8,0,0,1,11.32,11.32Z"></path>
		</symbol>
		<symbol id="icon-clock-countdown" viewBox="0 0 256 256">
			<path fill="currentColor" d="M232,136.66A104.12,104.12,0,1,1,119.34,24,8,8,0,0,1,120.66,40,88.12,88.12,0,1,0,216,135.34,8,8,0,0,1,232,136.66ZM120,72v56a8,8,0,0,0,8,8h56a8,8,0,0,0,0-16H136V72a8,8,0,0,0-16,0Zm40-24a12,12,0,1,0-12-12A12,12,0,0,0,160,48Zm36,24a12,12,0,1,0-12-12A12,12,0,0,0 196 72Zm24 36a12 12 0 1 0-12-12A12 12 0 0 000220 108Z"></path>
		</symbol>
		<symbol id="icon-corn" viewBox="0 0 24 24">
			<g fill="none" stroke="currentColor" stroke-linecap="round" stroke-linejoin="round" stroke-width="1.5">
				<path d="M3.885 20.132c2.103 2.078 5.978 1.618 8.655-1.026c3.059-3.021 4.642-3.927 5.753-4.547c.224-.125.28-.436.098-.616c-3.609-3.565-9.633-.897-10.284 3.807m-4.222 2.382L2.5 21.5m1.385-1.368c-2.103-2.077-1.638-5.904 1.039-8.548c.847-.628 2.472-2.407 2.734-4.81c.026-.243.335-.366.51-.193a6.53 6.53 0 0 1 1.955 4.666" />
				<path d="M17.592 13c2.35-3.624 4.94-8.276 3.487-9.954c-1.73-2-7.07 1.892-11.079 5.29" />
			</g>
		</symbol>
		<symbol id="icon-drop-slash" viewBox="0 0 256 256">
			<path d="M53.92,34.62A8,8,0,1,0,42.08,45.38L64.72,70.29C48.32,95,40,119.78,40,144a88,88,0,0,0,149.21,63.22l12.87,14.16a8,8,0,1,0,11.84-10.76ZM128,216a72.08,72.08,0,0,1-72-72c0-19.93,6.68-40.57,19.86-61.46L178.43,195.36A71.84,71.84,0,0,1,128,216ZM90,50.51a8,8,0,0,1-.27-11.31A247.8,247.8,0,0,1,123.41,9.45a8,8,0,0,1,9.18,0C136,11.83,216,68.7,216,144a88.08,88.08,0,0,1-3.15,23.4,8,8,0,0,1-7.71,5.88A7.79,7.79,0,0,1,203,173a8,8,0,0,1-5.59-9.83A72.55,72.55,0,0,0,200,144c0-57.24-55.48-105-72-118a252.23,252.23,0,0,0-26.66,24.23A8,8,0,0,1,90,50.51Z"></path>
		</symbol>
		<symbol id="icon-exclamation-mark" viewBox="0 0 256 256">
			<path d="M144,200a16,16,0,1,1-16-16A16,16,0,0,1,144,200Zm-16-40a8,8,0,0,0,8-8V48a8,8,0,0,0-16,0V152A8,8,0,0,0,128,160Z"></path>
		</symbol>
		<symbol id="icon-file" viewBox="0 0 256 256">
			<path fill="currentColor" d="M213.66,82.34l-56-56A8,8,0,0,0,152,24H56A16,16,0,0,0,40,40V216a16,16,0,0,0,16,16H200a16,16,0,0,0,16-16V88A8,8,0,0,0,213.66,82.34ZM160,51.31,188.69,80H160ZM200,216H56V40h88V88a8,8,0,0,0,8,8h48V216Z"></path>
		</symbol>
		<symbol id="icon-file-text" viewBox="0 0 256 256">
			<path fill="currentColor" d="M213.66,82.34l-56-56A8,8,0,0,0,152,24H56A16,16,0,0,0,40,40V216a16,16,0,0,0,16,16H200a16,16,0,0,0,16-16V88A8,8,0,0,0,213.66,82.34ZM160,51.31,188.69,80H160ZM200,216H56V40h88V88a8,8,0,0,0,8,8h48V216Zm-32-80a8,8,0,0,1-8,8H96a8,8,0,0,1,0-16h64A8,8,0,0,1,168,136Zm0,32a8,8,0,0,1-8,8H96a8,8,0,0,1,0-16h64A8,8,0,0,1,168,168Z"></path>
		</symbol>
		<symbol id="icon-gavel" viewBox="0 0 256 256">
			<path fill="currentColor" d="M243.32,116.69l-16-16a16,16,0,0,0-20.84-1.53L156.84,49.52a16,16,0,0,0-1.52-20.84l-16-16a16,16,0,0,0-22.63,0l-64,64a16,16,0,0,0,0,22.63l16,16a16,16,0,0,0,20.83,1.52L96.69,124,31.31,189.38A25,25,0,0,0,66.63,224.7L132,159.32l7.17,7.16a16,16,0,0,0,1.52,20.84l16,16a16,16,0,0,0,22.63,0l64-64A16,16,0,0,0,243.32,116.69ZM80,104,64,88l64-64,16,16ZM55.32,213.38a9,9,0,0,1-12.69,0,9,9,0,0,1,0-12.68L108,135.32,120.69,148ZM101,105.66,145.66,61,195,110.34,150.35,155ZM168,192l-16-16,4-4h0l56-56h0l4-4,16,16Z"></path>
		</symbol>
		<symbol id="icon-legal" viewBox="0 0 10 10" fill="none">
			<path fill="currentColor" d="m1.5 8v-3.5h1v3.5zm3 0v-3.5h1v3.5zm-4.5 2v-1h10v1zm7.5-2v-3.5h1v3.5zm-7.5-4.5v-1l5-2.5 5 2.5v1zm2.225-1h2.775 2.775zm0 0h5.55l-2.775-1.375z"/>
		</symbol>
		<symbol id="icon-pencil" viewBox="0 0 256 256">
			<path fill="currentColor" d="M227.31,73.37,182.63,28.68a16,16,0,0,0-22.63,0L36.69,152A15.86,15.86,0,0,0,32,163.31V208a16,16,0,0,0,16,16H92.69A15.86,15.86,0,0,0,104,219.31L227.31,96a16,16,0,0,0,0-22.63ZM51.31,160,136,75.31,152.69,92,68,176.68ZM48,179.31,76.69,208H48Zm48,25.38L79.31,188,164,103.31,180.69,120Zm96-96L147.31,64l24-24L216,84.68Z"></path>
		</symbol>
		<symbol id="icon-pint-glass" viewBox="0 0 256 256">
			<path fill="currentColor" d="M206,26.69A8,8,0,0,0,200,24H56a8,8,0,0,0-7.94,9l23.15,193A16,16,0,0,0,87.1,240h81.8a16,16,0,0,0,15.89-14.09L207.94,33A8,8,0,0,0,206,26.69ZM191,40,188.1,64H67.9L65,40ZM168.9,224H87.1L69.82,80H186.18Z"></path>
		</symbol>
		<symbol id="icon-wheat" viewBox="0 0 32 32">
			<path fill="currentColor" d="M21 3v2.586l-4 4V1h-2v8.586l-4-4V3H9v16a7.004 7.004 0 0 0 6 6.92V30h2v-4.08A7.004 7.004 0 0 0 23 19V3Zm-6 20.899A5.01 5.01 0 0 1 11 19v-2.586l4 4Zm0-6.313l-4-4V8.414l4 4Zm2-5.172l4-4v5.172l-4 4Zm0 11.485v-3.485l4-4V19a5.01 5.01 0 0 1-4 4.899" />
		</symbol>
		<symbol id="icon-warning" viewBox="0 0 256 256">
			<path fill="currentColor" d="M236.8,188.09,149.35,36.22h0a24.76,24.76,0,0,0-42.7,0L19.2,188.09a23.51,23.51,0,0,0,0,23.72A24.35,24.35,0,0,0,40.55,224h174.9a24.35,24.35,0,0,0,21.33-12.19A23.51,23.51,0,0,0,236.8,188.09ZM222.93,203.8a8.5,8.5,0,0,1-7.48,4.2H40.55a8.5,8.5,0,0,1-7.48-4.2,7.59,7.59,0,0,1,0-7.72L120.52,44.21a8.75,8.75,0,0,1,15,0l87.45,151.87A7.59,7.59,0,0,1,222.93,203.8ZM120,144V104a8,8,0,0,1,16,0v40a8,8,0,0,1-16,0Zm20,36a12,12,0,1,1-12-12A12,12,0,0,1,140,180Z"></path>
		</symbol>
		<symbol id="icon-water-drop" viewBox="0 0 256 256">
			<path fill="currentColor" d="M174,47.75a254.19,254.19,0,0,0-41.45-38.3,8,8,0,0,0-9.18,0A254.19,254.19,0,0,0,82,47.75C54.51,79.32,40,112.6,40,144a88,88,0,0,0,176,0C216,112.6,201.49,79.32,174,47.75ZM128,216a72.08,72.08,0,0,1-72-72c0-57.23,55.47-105,72-118,16.53,13,72,60.75,72,118A72.08,72.08,0,0,1,128,216Zm55.89-62.66a57.6,57.6,0,0,1-46.56,46.55A8.75,8.75,0,0,1,136,200a8,8,0,0,1-1.32-15.89c16.57-2.79,30.63-16.85,33.44-33.45a8,8,0,0,1,15.78,2.68Z"></path>
		</symbol>
		<symbol id="icon-rye" viewBox="0 0 24 24">
			<path fill="currentColor" d="m3.72 21.02l-.714-.733l3.117-3.118q-.821-.821-1.241-1.727t-.42-1.848q0-.91.336-1.733t.96-1.427l1.079-1.053l.873.853q.029-.876.35-1.669q.32-.792.934-1.386l1.079-1.054l.873.854q.029-.839.363-1.612t.947-1.386l2.158-2.171l.707.707l-1.073 1.118l.346.346q.748.748 1.07 1.733q.32.984.138 1.995L20.273 3l.708.714l-4.647 4.67q1.012-.163 1.987.168t1.723 1.079l.365.346l1.074-1.118l.713.714l-2.127 2.171q-.594.639-1.402.963t-1.665.352l.835.83l-1.054 1.053q-.614.614-1.409.948t-1.672.362l.898.892l-1.079 1.079q-.629.629-1.455.963q-.825.333-1.73.333q-.83 0-1.683-.4q-.853-.402-1.791-1.248zm3.117-4.59q.694-.693 1.044-1.394t.35-1.417q0-.69-.35-1.397t-1.044-1.42q-.675.675-1.028 1.391t-.353 1.426q0 .735.353 1.445t1.028 1.367m3.525 2.113q.715-.006 1.429-.356q.713-.35 1.388-1.044q-.713-.713-1.41-1.054q-.698-.34-1.388-.34q-.71 0-1.416.363t-1.42 1.076q.674.675 1.388 1.015t1.429.34m-.289-5.369q.694-.713 1.044-1.417t.35-1.394q0-.716-.35-1.42t-1.044-1.398q-.675.656-1.028 1.37q-.353.713-.353 1.448q0 .709.353 1.423q.353.713 1.028 1.388m3.55 2.094q.735 0 1.436-.353q.7-.352 1.337-1.027q-.675-.714-1.366-1.054t-1.388-.34t-1.41.362t-1.426 1.076q.656.656 1.379.996t1.438.34m-.307-5.292q.675-.656 1.012-1.37t.338-1.447q0-.73-.338-1.445q-.337-.717-.993-1.392q-.675.675-1.028 1.392t-.353 1.426q0 .734.343 1.448q.344.713 1.019 1.388m3.544 2.089q.71 0 1.426-.353t1.41-1.047q-.719-.675-1.436-1.016q-.716-.34-1.426-.34q-.709.006-1.413.356t-1.398 1.025q.694.694 1.41 1.037q.717.343 1.427.338" />
		</symbol>
		<symbol id="icon-wind" viewBox="0 0 256 256">
			<path fill="currentColor" d="M184,184a32,32,0,0,1-32,32c-13.7,0-26.95-8.93-31.5-21.22a8,8,0,0,1,15-5.56C137.74,195.27,145,200,152,200a16,16,0,0,0,0-32H40a8,8,0,0,1,0-16H152A32,32,0,0,1,184,184Zm-64-80a32,32,0,0,0,0-64c-13.7,0-26.95,8.93-31.5,21.22a8,8,0,0,0,15,5.56C105.74,60.73,113,56,120,56a16,16,0,0,1,0,32H24a8,8,0,0,0,0,16Zm88-32c-13.7,0-26.95,8.93-31.5,21.22a8,8,0,0,0,15,5.56C193.74,92.73,201,88,208,88a16,16,0,0,1,0,32H32a8,8,0,0,0,0,16H208a32,32,0,0,0,0-64Z"></path>
		</symbol>
		<symbol id="icon-wine" viewBox="0 0 256 256">
			<path fill="currentColor" d="M205.33,103.67,183.56,29.74A8,8,0,0,0,175.89,24H80.11a8,8,0,0,0-7.67,5.74L50.67,103.67a63.46,63.46,0,0,0,17.42,64.67A87.39,87.39,0,0,0,120,191.63V232H88a8,8,0,1,0,0,16h80a8,8,0,1,0,0-16H136V191.63a87.41,87.41,0,0,0,51.91-23.29A63.46,63.46,0,0,0,205.33,103.67ZM86.09,40h83.82L190,108.19c.09.3.17.6.25.9-21.42,7.68-45.54-1.6-58.63-8.23C106.43,88.11,86.43,86.49,71.68,88.93ZM177,156.65a71.69,71.69,0,0,1-98,0,47.55,47.55,0,0,1-13-48.46l.45-1.52c12-4.06,31.07-5.14,57.93,8.47,11.15,5.65,29.16,12.85,48.43,12.85a68.64,68.64,0,0,0,19.05-2.6A47.2,47.2,0,0,1,177,156.65Z"></path>
		</symbol>
		<symbol id="icon-x" viewBox="0 0 256 256">
			<path d="M205.66,194.34a8,8,0,0,1-11.32,11.32L128,139.31,61.66,205.66a8,8,0,0,1-11.32-11.32L116.69,128,50.34,61.66A8,8,0,0,1,61.66,50.34L128,116.69l66.34-66.35a8,8,0,0,1,11.32,11.32L139.31,128Z"></path>
		</symbol>
	</defs>
</svg>
