<svg xmlns="http://www.w3.org/2000/svg" viewBox="0 0 24 24">
	<g fill="none" stroke="currentColor" stroke-width="1.5">
		<path stroke-linecap="round" stroke-linejoin="round" d="M12 7.5c4.17 0 7.55-1.511 7.55-3.375S16.17.75 12 .75S4.451 2.261 4.451 4.125S7.831 7.5 12.001 7.5m8.883 1.985A14.75 14.75 0 0 1 12 12.115c-3.167.1-6.282-.822-8.884-2.63M20.7 15.51A14.94 14.94 0 0 1 12 18a14.94 14.94 0 0 1-8.7-2.49" />
		<path d="M8.625 4.475a.375.375 0 0 1 0-.75m0 .75a.375.375 0 0 0 0-.75" />
		<path stroke-linecap="round" stroke-linejoin="round" d="M4.5 3.75c-2 5.318-2 11.182 0 16.5c.75 1.5 3.358 3 7.5 3s6.75-1.5 7.5-3c2-5.318 2-11.182 0-16.5" />
	</g>
</svg>
